solid OpenSCAD_Model
  facet normal -1 0 0
    outer loop
      vertex -70 25 -5.1
      vertex -70 40 -20
      vertex -70 25 -15.1
    endloop
  endfacet
  facet normal -1 0 0
    outer loop
      vertex -70 25 -5.1
      vertex -70 0 0
      vertex -70 40 0
    endloop
  endfacet
  facet normal -1 0 0
    outer loop
      vertex -70 0 -20
      vertex -70 0 0
      vertex -70 10 -5.1
    endloop
  endfacet
  facet normal -1 0 0
    outer loop
      vertex -70 0 -20
      vertex -70 10 -5.1
      vertex -70 10 -15.1
    endloop
  endfacet
  facet normal -1 0 0
    outer loop
      vertex -70 0 -20
      vertex -70 10 -15.1
      vertex -70 40 -20
    endloop
  endfacet
  facet normal -1 0 0
    outer loop
      vertex -70 10 -15.1
      vertex -70 25 -15.1
      vertex -70 40 -20
    endloop
  endfacet
  facet normal -1 0 0
    outer loop
      vertex -70 40 -20
      vertex -70 25 -5.1
      vertex -70 40 0
    endloop
  endfacet
  facet normal -1 0 0
    outer loop
      vertex -70 10 -5.1
      vertex -70 0 0
      vertex -70 25 -5.1
    endloop
  endfacet
  facet normal 0 -1 0
    outer loop
      vertex -60.5485 0 -12.5605
      vertex -70 0 -20
      vertex -40 0 -20
    endloop
  endfacet
  facet normal 0 -1 0
    outer loop
      vertex -47.3 0 -12.2517
      vertex -70 0 0
      vertex -40 0 -20
    endloop
  endfacet
  facet normal 0 -1 0
    outer loop
      vertex 2.44929e-15 0 -20
      vertex 25 0 -20
      vertex -70 0 0
    endloop
  endfacet
  facet normal 0 -1 0
    outer loop
      vertex 25 0 -20
      vertex 25 0 0
      vertex 0 0 0
    endloop
  endfacet
  facet normal 0 -1 0
    outer loop
      vertex 25 0 -20
      vertex -39 0 -4.77612e-15
      vertex -70 0 0
    endloop
  endfacet
  facet normal 0 -1 0
    outer loop
      vertex 25 0 -20
      vertex 0 0 0
      vertex -39 0 -4.77612e-15
    endloop
  endfacet
  facet normal 0 -1 0
    outer loop
      vertex -39 0 -4.77612e-15
      vertex -39 0 0
      vertex -70 0 0
    endloop
  endfacet
  facet normal 0 -1 0
    outer loop
      vertex -44.0083 0 -8.32875
      vertex -43.4 0 -10
      vertex 2.44929e-15 0 -20
    endloop
  endfacet
  facet normal 0 -1 0
    outer loop
      vertex -70 0 0
      vertex -70 0 -20
      vertex -63.4432 0 -10.8893
    endloop
  endfacet
  facet normal 0 -1 0
    outer loop
      vertex -59.0083 0 -11.6712
      vertex -60.5485 0 -12.5605
      vertex -40 0 -20
    endloop
  endfacet
  facet normal 0 -1 0
    outer loop
      vertex -70 0 0
      vertex -63.4432 0 -10.8893
      vertex -63.4432 0 -9.11075
    endloop
  endfacet
  facet normal 0 -1 0
    outer loop
      vertex -58.4 0 -10
      vertex -59.0083 0 -11.6712
      vertex -40 0 -20
    endloop
  endfacet
  facet normal 0 -1 0
    outer loop
      vertex -70 0 0
      vertex -63.4432 0 -9.11075
      vertex -62.3 0 -7.74833
    endloop
  endfacet
  facet normal 0 -1 0
    outer loop
      vertex -70 0 0
      vertex -62.3 0 -7.74833
      vertex -60.5485 0 -7.4395
    endloop
  endfacet
  facet normal 0 -1 0
    outer loop
      vertex -70 0 0
      vertex -59.0083 0 -8.32875
      vertex -40 0 -20
    endloop
  endfacet
  facet normal 0 -1 0
    outer loop
      vertex -70 0 0
      vertex -60.5485 0 -7.4395
      vertex -59.0083 0 -8.32875
    endloop
  endfacet
  facet normal 0 -1 0
    outer loop
      vertex -62.3 0 -12.2517
      vertex -70 0 -20
      vertex -60.5485 0 -12.5605
    endloop
  endfacet
  facet normal 0 -1 0
    outer loop
      vertex -63.4432 0 -10.8893
      vertex -70 0 -20
      vertex -62.3 0 -12.2517
    endloop
  endfacet
  facet normal 0 -1 0
    outer loop
      vertex -48.4432 0 -9.11075
      vertex -70 0 0
      vertex -48.4432 0 -10.8893
    endloop
  endfacet
  facet normal 0 -1 0
    outer loop
      vertex -47.3 0 -7.74833
      vertex -70 0 0
      vertex -48.4432 0 -9.11075
    endloop
  endfacet
  facet normal 0 -1 0
    outer loop
      vertex -45.5485 0 -7.4395
      vertex -70 0 0
      vertex -47.3 0 -7.74833
    endloop
  endfacet
  facet normal 0 -1 0
    outer loop
      vertex 2.44929e-15 0 -20
      vertex -70 0 0
      vertex -45.5485 0 -7.4395
    endloop
  endfacet
  facet normal 0 -1 0
    outer loop
      vertex -43.4 0 -10
      vertex -44.0083 0 -11.6712
      vertex 2.44929e-15 0 -20
    endloop
  endfacet
  facet normal 0 -1 0
    outer loop
      vertex 2.44929e-15 0 -20
      vertex -45.5485 0 -7.4395
      vertex -44.0083 0 -8.32875
    endloop
  endfacet
  facet normal 0 -1 0
    outer loop
      vertex -44.0083 0 -11.6712
      vertex -45.5485 0 -12.5605
      vertex 2.44929e-15 0 -20
    endloop
  endfacet
  facet normal 0 -1 0
    outer loop
      vertex -45.5485 0 -12.5605
      vertex -47.3 0 -12.2517
      vertex -40 0 -20
    endloop
  endfacet
  facet normal 0 -1 0
    outer loop
      vertex 2.44929e-15 0 -20
      vertex -45.5485 0 -12.5605
      vertex -40 0 -20
    endloop
  endfacet
  facet normal 0 -1 0
    outer loop
      vertex -48.4432 0 -10.8893
      vertex -70 0 0
      vertex -47.3 0 -12.2517
    endloop
  endfacet
  facet normal 0 -1 0
    outer loop
      vertex -59.0083 0 -8.32875
      vertex -58.4 0 -10
      vertex -40 0 -20
    endloop
  endfacet
  facet normal 0 0 -1
    outer loop
      vertex -70 0 -20
      vertex -70 40 -20
      vertex -40 0 -20
    endloop
  endfacet
  facet normal 0 0 -1
    outer loop
      vertex -40 0 -20
      vertex -70 40 -20
      vertex -40 40 -20
    endloop
  endfacet
  facet normal 0 1 0
    outer loop
      vertex -70 40 -20
      vertex -70 40 0
      vertex -40 40 -20
    endloop
  endfacet
  facet normal 0 1 0
    outer loop
      vertex -40 40 -20
      vertex -70 40 0
      vertex -39 40 0
    endloop
  endfacet
  facet normal 0 1 0
    outer loop
      vertex -40 40 -20
      vertex -39 40 0
      vertex -39 40 -4.77612e-15
    endloop
  endfacet
  facet normal 0 1 0
    outer loop
      vertex -40 40 -20
      vertex -39 40 -4.77612e-15
      vertex 0 40 0
    endloop
  endfacet
  facet normal 0 1 0
    outer loop
      vertex -40 40 -20
      vertex 0 40 0
      vertex 25 40 0
    endloop
  endfacet
  facet normal 0 1 0
    outer loop
      vertex 2.44929e-15 40 -20
      vertex 25 40 0
      vertex 25 40 -20
    endloop
  endfacet
  facet normal 0 1 0
    outer loop
      vertex -40 40 -20
      vertex 25 40 0
      vertex 2.44929e-15 40 -20
    endloop
  endfacet
  facet normal 0 0 1
    outer loop
      vertex -70 40 0
      vertex -70 0 0
      vertex -39 0 0
    endloop
  endfacet
  facet normal 0 0 1
    outer loop
      vertex -39 40 0
      vertex -70 40 0
      vertex -39 0 0
    endloop
  endfacet
  facet normal -2.22045e-16 2.71926e-32 -1
    outer loop
      vertex -38 25 -5.1
      vertex -38 10 -5.1
      vertex -70 25 -5.1
    endloop
  endfacet
  facet normal -2.22045e-16 2.71926e-32 -1
    outer loop
      vertex -70 25 -5.1
      vertex -38 10 -5.1
      vertex -70 10 -5.1
    endloop
  endfacet
  facet normal 1.22465e-16 1 -2.54072e-33
    outer loop
      vertex -63.3 10 -13.9838
      vertex -38 10 -15.1
      vertex -70 10 -15.1
    endloop
  endfacet
  facet normal 1.22465e-16 1 -2.54072e-33
    outer loop
      vertex -58.6999 10 -13.9838
      vertex -38 10 -15.1
      vertex -63.3 10 -13.9838
    endloop
  endfacet
  facet normal 1.22465e-16 1 -2.54072e-33
    outer loop
      vertex -70 10 -5.1
      vertex -63.3 10 -13.9838
      vertex -70 10 -15.1
    endloop
  endfacet
  facet normal 1.22465e-16 1 -2.54072e-33
    outer loop
      vertex -48.3 10 -13.9838
      vertex -38 10 -15.1
      vertex -58.6999 10 -13.9838
    endloop
  endfacet
  facet normal 1.22465e-16 1 -2.54072e-33
    outer loop
      vertex -50.6001 10 -10
      vertex -58.6999 10 -6.0162
      vertex -48.3 10 -6.0162
    endloop
  endfacet
  facet normal 1.22465e-16 1 -2.54072e-33
    outer loop
      vertex -38 10 -5.1
      vertex -58.6999 10 -6.0162
      vertex -70 10 -5.1
    endloop
  endfacet
  facet normal 1.22465e-16 1 -2.54072e-33
    outer loop
      vertex -58.6999 10 -6.0162
      vertex -63.3 10 -6.0162
      vertex -70 10 -5.1
    endloop
  endfacet
  facet normal 1.22465e-16 1 -2.54072e-33
    outer loop
      vertex -48.3 10 -13.9838
      vertex -56.3999 10 -10
      vertex -50.6001 10 -10
    endloop
  endfacet
  facet normal 1.22465e-16 1 -2.54072e-33
    outer loop
      vertex -70 10 -5.1
      vertex -65.6001 10 -10
      vertex -63.3 10 -13.9838
    endloop
  endfacet
  facet normal 1.22465e-16 1 -2.54072e-33
    outer loop
      vertex -43.6999 10 -13.9838
      vertex -38 10 -15.1
      vertex -48.3 10 -13.9838
    endloop
  endfacet
  facet normal 1.22465e-16 1 -2.54072e-33
    outer loop
      vertex -56.3999 10 -10
      vertex -48.3 10 -13.9838
      vertex -58.6999 10 -13.9838
    endloop
  endfacet
  facet normal 1.22465e-16 1 -2.54072e-33
    outer loop
      vertex -41.3999 10 -10
      vertex -38 10 -15.1
      vertex -43.6999 10 -13.9838
    endloop
  endfacet
  facet normal 1.22465e-16 1 -2.54072e-33
    outer loop
      vertex -38 10 -5.1
      vertex -38 10 -15.1
      vertex -41.3999 10 -10
    endloop
  endfacet
  facet normal 1.22465e-16 1 -2.54072e-33
    outer loop
      vertex -38 10 -5.1
      vertex -41.3999 10 -10
      vertex -43.6999 10 -6.0162
    endloop
  endfacet
  facet normal 1.22465e-16 1 -2.54072e-33
    outer loop
      vertex -38 10 -5.1
      vertex -48.3 10 -6.0162
      vertex -58.6999 10 -6.0162
    endloop
  endfacet
  facet normal 1.22465e-16 1 -2.54072e-33
    outer loop
      vertex -43.6999 10 -6.0162
      vertex -48.3 10 -6.0162
      vertex -38 10 -5.1
    endloop
  endfacet
  facet normal 1.22465e-16 1 -2.54072e-33
    outer loop
      vertex -65.6001 10 -10
      vertex -70 10 -5.1
      vertex -63.3 10 -6.0162
    endloop
  endfacet
  facet normal 1.22465e-16 1 -2.54072e-33
    outer loop
      vertex -58.6999 10 -6.0162
      vertex -50.6001 10 -10
      vertex -56.3999 10 -10
    endloop
  endfacet
  facet normal -1.22465e-16 -1 2.54072e-33
    outer loop
      vertex -38 25 -15.1
      vertex -38 25 -5.1
      vertex -70 25 -5.1
    endloop
  endfacet
  facet normal -1.22465e-16 -1 2.54072e-33
    outer loop
      vertex -70 25 -15.1
      vertex -38 25 -15.1
      vertex -70 25 -5.1
    endloop
  endfacet
  facet normal 2.22045e-16 -2.71926e-32 1
    outer loop
      vertex -38 10 -15.1
      vertex -38 25 -15.1
      vertex -70 25 -15.1
    endloop
  endfacet
  facet normal 2.22045e-16 -2.71926e-32 1
    outer loop
      vertex -70 10 -15.1
      vertex -38 10 -15.1
      vertex -70 25 -15.1
    endloop
  endfacet
  facet normal 1 0 0
    outer loop
      vertex -39 0 0
      vertex -39 0 -4.77612e-15
      vertex -39 40 -4.77612e-15
    endloop
  endfacet
  facet normal 1 0 0
    outer loop
      vertex -39 40 0
      vertex -39 0 0
      vertex -39 40 -4.77612e-15
    endloop
  endfacet
  facet normal -1.22465e-16 0 1
    outer loop
      vertex -30 9.9 -3.67394e-15
      vertex -39 0 -4.77612e-15
      vertex 0 0 0
    endloop
  endfacet
  facet normal -1.22465e-16 0 1
    outer loop
      vertex -10 9.9 -1.22465e-15
      vertex -30 9.9 -3.67394e-15
      vertex 0 0 0
    endloop
  endfacet
  facet normal -1.22465e-16 0 1
    outer loop
      vertex -39 40 -4.77612e-15
      vertex -39 0 -4.77612e-15
      vertex -30 9.9 -3.67394e-15
    endloop
  endfacet
  facet normal -1.22465e-16 0 1
    outer loop
      vertex -10 30.1 -1.22465e-15
      vertex -10 9.9 -1.22465e-15
      vertex 0 0 0
    endloop
  endfacet
  facet normal -1.22465e-16 0 1
    outer loop
      vertex -39 40 -4.77612e-15
      vertex -30 9.9 -3.67394e-15
      vertex -30 30.1 -3.67394e-15
    endloop
  endfacet
  facet normal -1.22465e-16 0 1
    outer loop
      vertex 0 40 0
      vertex -10 30.1 -1.22465e-15
      vertex 0 0 0
    endloop
  endfacet
  facet normal -1.22465e-16 0 1
    outer loop
      vertex 0 40 0
      vertex -39 40 -4.77612e-15
      vertex -10 30.1 -1.22465e-15
    endloop
  endfacet
  facet normal -1.22465e-16 0 1
    outer loop
      vertex -30 30.1 -3.67394e-15
      vertex -10 30.1 -1.22465e-15
      vertex -39 40 -4.77612e-15
    endloop
  endfacet
  facet normal 0 0 1
    outer loop
      vertex 0 40 0
      vertex 0 0 0
      vertex 25 0 0
    endloop
  endfacet
  facet normal 0 0 1
    outer loop
      vertex 25 40 0
      vertex 0 40 0
      vertex 25 0 0
    endloop
  endfacet
  facet normal 1 0 0
    outer loop
      vertex 25 21.9482 -14.6749
      vertex 25 0 -20
      vertex 25 40 -20
    endloop
  endfacet
  facet normal 1 0 0
    outer loop
      vertex 25 0 0
      vertex 25 0 -20
      vertex 25 14.1836 -10.4729
    endloop
  endfacet
  facet normal 1 0 0
    outer loop
      vertex 25 20.9876 -3.08183
      vertex 25 22.8557 -3.72316
      vertex 25 40 0
    endloop
  endfacet
  facet normal 1 0 0
    outer loop
      vertex 25 0 0
      vertex 25 14.1836 -10.4729
      vertex 25 14.0205 -8.50452
    endloop
  endfacet
  facet normal 1 0 0
    outer loop
      vertex 25 25.023 -12.2817
      vertex 25 23.6853 -13.7348
      vertex 25 40 -20
    endloop
  endfacet
  facet normal 1 0 0
    outer loop
      vertex 25 15.5857 -4.93631
      vertex 25 0 0
      vertex 25 14.5054 -6.58983
    endloop
  endfacet
  facet normal 1 0 0
    outer loop
      vertex 25 17.1443 -3.72316
      vertex 25 0 0
      vertex 25 15.5857 -4.93631
    endloop
  endfacet
  facet normal 1 0 0
    outer loop
      vertex 25 22.8557 -3.72316
      vertex 25 24.4143 -4.93631
      vertex 25 40 0
    endloop
  endfacet
  facet normal 1 0 0
    outer loop
      vertex 25 19.0124 -3.08183
      vertex 25 0 0
      vertex 25 17.1443 -3.72316
    endloop
  endfacet
  facet normal 1 0 0
    outer loop
      vertex 25 40 0
      vertex 25 0 0
      vertex 25 19.0124 -3.08183
    endloop
  endfacet
  facet normal 1 0 0
    outer loop
      vertex 25 40 0
      vertex 25 19.0124 -3.08183
      vertex 25 20.9876 -3.08183
    endloop
  endfacet
  facet normal 1 0 0
    outer loop
      vertex 25 25.8164 -10.4729
      vertex 25 25.023 -12.2817
      vertex 25 40 -20
    endloop
  endfacet
  facet normal 1 0 0
    outer loop
      vertex 25 40 0
      vertex 25 24.4143 -4.93631
      vertex 25 40 -20
    endloop
  endfacet
  facet normal 1 0 0
    outer loop
      vertex 25 24.4143 -4.93631
      vertex 25 25.4946 -6.58983
      vertex 25 40 -20
    endloop
  endfacet
  facet normal 1 0 0
    outer loop
      vertex 25 25.4946 -6.58983
      vertex 25 25.9795 -8.50452
      vertex 25 40 -20
    endloop
  endfacet
  facet normal 1 0 0
    outer loop
      vertex 25 25.9795 -8.50452
      vertex 25 25.8164 -10.4729
      vertex 25 40 -20
    endloop
  endfacet
  facet normal 1 0 0
    outer loop
      vertex 25 20 -15
      vertex 25 0 -20
      vertex 25 21.9482 -14.6749
    endloop
  endfacet
  facet normal 1 0 0
    outer loop
      vertex 25 18.0518 -14.6749
      vertex 25 0 -20
      vertex 25 20 -15
    endloop
  endfacet
  facet normal 1 0 0
    outer loop
      vertex 25 16.3147 -13.7348
      vertex 25 0 -20
      vertex 25 18.0518 -14.6749
    endloop
  endfacet
  facet normal 1 0 0
    outer loop
      vertex 25 14.977 -12.2817
      vertex 25 0 -20
      vertex 25 16.3147 -13.7348
    endloop
  endfacet
  facet normal 1 0 0
    outer loop
      vertex 25 14.1836 -10.4729
      vertex 25 0 -20
      vertex 25 14.977 -12.2817
    endloop
  endfacet
  facet normal 1 0 0
    outer loop
      vertex 25 23.6853 -13.7348
      vertex 25 21.9482 -14.6749
      vertex 25 40 -20
    endloop
  endfacet
  facet normal 1 0 0
    outer loop
      vertex 25 14.0205 -8.50452
      vertex 25 14.5054 -6.58983
      vertex 25 0 0
    endloop
  endfacet
  facet normal 0 0 -1
    outer loop
      vertex 2.44929e-15 0 -20
      vertex 2.44929e-15 40 -20
      vertex 25 0 -20
    endloop
  endfacet
  facet normal 0 0 -1
    outer loop
      vertex 25 0 -20
      vertex 2.44929e-15 40 -20
      vertex 25 40 -20
    endloop
  endfacet
  facet normal 1.22465e-16 0 -1
    outer loop
      vertex -30 30.1 -20
      vertex -40 40 -20
      vertex 2.44929e-15 40 -20
    endloop
  endfacet
  facet normal 1.22465e-16 0 -1
    outer loop
      vertex -10 30.1 -20
      vertex -30 30.1 -20
      vertex 2.44929e-15 40 -20
    endloop
  endfacet
  facet normal 1.22465e-16 0 -1
    outer loop
      vertex -40 0 -20
      vertex -40 40 -20
      vertex -30 9.9 -20
    endloop
  endfacet
  facet normal 1.22465e-16 0 -1
    outer loop
      vertex -40 0 -20
      vertex -30 9.9 -20
      vertex 2.44929e-15 0 -20
    endloop
  endfacet
  facet normal 1.22465e-16 0 -1
    outer loop
      vertex -10 30.1 -20
      vertex 2.44929e-15 0 -20
      vertex -10 9.9 -20
    endloop
  endfacet
  facet normal 1.22465e-16 0 -1
    outer loop
      vertex -30 9.9 -20
      vertex -10 9.9 -20
      vertex 2.44929e-15 0 -20
    endloop
  endfacet
  facet normal 1.22465e-16 0 -1
    outer loop
      vertex 2.44929e-15 0 -20
      vertex -10 30.1 -20
      vertex 2.44929e-15 40 -20
    endloop
  endfacet
  facet normal 1.22465e-16 0 -1
    outer loop
      vertex -30 9.9 -20
      vertex -40 40 -20
      vertex -30 30.1 -20
    endloop
  endfacet
  facet normal 0.766044 1.42728e-16 0.642788
    outer loop
      vertex -62.3 0 -12.2517
      vertex -62.3 6.9999 -12.2517
      vertex -63.4432 6.9999 -10.8893
    endloop
  endfacet
  facet normal 0.766044 1.42728e-16 0.642788
    outer loop
      vertex -63.4432 0 -10.8893
      vertex -62.3 0 -12.2517
      vertex -63.4432 6.9999 -10.8893
    endloop
  endfacet
  facet normal 1 0 0
    outer loop
      vertex -63.4432 6.9999 -10.8893
      vertex -63.4432 6.9999 -9.11075
      vertex -63.4432 0 -9.11075
    endloop
  endfacet
  facet normal 1 0 0
    outer loop
      vertex -63.4432 0 -10.8893
      vertex -63.4432 6.9999 -10.8893
      vertex -63.4432 0 -9.11075
    endloop
  endfacet
  facet normal 0.173648 2.18671e-16 0.984808
    outer loop
      vertex -60.5485 0 -12.5605
      vertex -60.5485 6.9999 -12.5605
      vertex -62.3 6.9999 -12.2517
    endloop
  endfacet
  facet normal 0.173648 2.18671e-16 0.984808
    outer loop
      vertex -62.3 0 -12.2517
      vertex -60.5485 0 -12.5605
      vertex -62.3 6.9999 -12.2517
    endloop
  endfacet
  facet normal -0.5 1.92296e-16 0.866026
    outer loop
      vertex -59.0083 0 -11.6712
      vertex -59.0083 6.9999 -11.6712
      vertex -60.5485 6.9999 -12.5605
    endloop
  endfacet
  facet normal -0.5 1.92296e-16 0.866026
    outer loop
      vertex -60.5485 0 -12.5605
      vertex -59.0083 0 -11.6712
      vertex -60.5485 6.9999 -12.5605
    endloop
  endfacet
  facet normal -0.939693 7.59437e-17 0.34202
    outer loop
      vertex -58.4 6.9999 -10
      vertex -59.0083 6.9999 -11.6712
      vertex -58.4 0 -10
    endloop
  endfacet
  facet normal -0.939693 7.59437e-17 0.34202
    outer loop
      vertex -58.4 0 -10
      vertex -59.0083 6.9999 -11.6712
      vertex -59.0083 0 -11.6712
    endloop
  endfacet
  facet normal -0.939693 -7.59437e-17 -0.34202
    outer loop
      vertex -58.4 6.9999 -10
      vertex -58.4 0 -10
      vertex -59.0083 6.9999 -8.32875
    endloop
  endfacet
  facet normal -0.939693 -7.59437e-17 -0.34202
    outer loop
      vertex -59.0083 6.9999 -8.32875
      vertex -58.4 0 -10
      vertex -59.0083 0 -8.32875
    endloop
  endfacet
  facet normal -0.5 -1.92296e-16 -0.866026
    outer loop
      vertex -59.0083 6.9999 -8.32875
      vertex -59.0083 0 -8.32875
      vertex -60.5485 6.9999 -7.4395
    endloop
  endfacet
  facet normal -0.5 -1.92296e-16 -0.866026
    outer loop
      vertex -60.5485 6.9999 -7.4395
      vertex -59.0083 0 -8.32875
      vertex -60.5485 0 -7.4395
    endloop
  endfacet
  facet normal 0.173648 -2.18671e-16 -0.984808
    outer loop
      vertex -60.5485 6.9999 -7.4395
      vertex -60.5485 0 -7.4395
      vertex -62.3 6.9999 -7.74833
    endloop
  endfacet
  facet normal 0.173648 -2.18671e-16 -0.984808
    outer loop
      vertex -62.3 6.9999 -7.74833
      vertex -60.5485 0 -7.4395
      vertex -62.3 0 -7.74833
    endloop
  endfacet
  facet normal 0.766044 -1.42728e-16 -0.642788
    outer loop
      vertex -63.4432 6.9999 -9.11075
      vertex -62.3 6.9999 -7.74833
      vertex -62.3 0 -7.74833
    endloop
  endfacet
  facet normal 0.766044 -1.42728e-16 -0.642788
    outer loop
      vertex -63.4432 0 -9.11075
      vertex -63.4432 6.9999 -9.11075
      vertex -62.3 0 -7.74833
    endloop
  endfacet
  facet normal 1 0 0
    outer loop
      vertex -48.4432 6.9999 -10.8893
      vertex -48.4432 6.9999 -9.11075
      vertex -48.4432 0 -9.11075
    endloop
  endfacet
  facet normal 1 0 0
    outer loop
      vertex -48.4432 0 -10.8893
      vertex -48.4432 6.9999 -10.8893
      vertex -48.4432 0 -9.11075
    endloop
  endfacet
  facet normal 0.766044 1.42728e-16 0.642788
    outer loop
      vertex -47.3 0 -12.2517
      vertex -47.3 6.9999 -12.2517
      vertex -48.4432 6.9999 -10.8893
    endloop
  endfacet
  facet normal 0.766044 1.42728e-16 0.642788
    outer loop
      vertex -48.4432 0 -10.8893
      vertex -47.3 0 -12.2517
      vertex -48.4432 6.9999 -10.8893
    endloop
  endfacet
  facet normal 0.173648 2.18671e-16 0.984808
    outer loop
      vertex -45.5485 0 -12.5605
      vertex -45.5485 6.9999 -12.5605
      vertex -47.3 6.9999 -12.2517
    endloop
  endfacet
  facet normal 0.173648 2.18671e-16 0.984808
    outer loop
      vertex -47.3 0 -12.2517
      vertex -45.5485 0 -12.5605
      vertex -47.3 6.9999 -12.2517
    endloop
  endfacet
  facet normal -0.5 1.92296e-16 0.866026
    outer loop
      vertex -44.0083 0 -11.6712
      vertex -44.0083 6.9999 -11.6712
      vertex -45.5485 6.9999 -12.5605
    endloop
  endfacet
  facet normal -0.5 1.92296e-16 0.866026
    outer loop
      vertex -45.5485 0 -12.5605
      vertex -44.0083 0 -11.6712
      vertex -45.5485 6.9999 -12.5605
    endloop
  endfacet
  facet normal -0.939693 7.59437e-17 0.34202
    outer loop
      vertex -43.4 6.9999 -10
      vertex -44.0083 6.9999 -11.6712
      vertex -43.4 0 -10
    endloop
  endfacet
  facet normal -0.939693 7.59437e-17 0.34202
    outer loop
      vertex -43.4 0 -10
      vertex -44.0083 6.9999 -11.6712
      vertex -44.0083 0 -11.6712
    endloop
  endfacet
  facet normal -0.939693 -7.59437e-17 -0.34202
    outer loop
      vertex -43.4 6.9999 -10
      vertex -43.4 0 -10
      vertex -44.0083 6.9999 -8.32875
    endloop
  endfacet
  facet normal -0.939693 -7.59437e-17 -0.34202
    outer loop
      vertex -44.0083 6.9999 -8.32875
      vertex -43.4 0 -10
      vertex -44.0083 0 -8.32875
    endloop
  endfacet
  facet normal -0.5 -1.92296e-16 -0.866026
    outer loop
      vertex -44.0083 6.9999 -8.32875
      vertex -44.0083 0 -8.32875
      vertex -45.5485 6.9999 -7.4395
    endloop
  endfacet
  facet normal -0.5 -1.92296e-16 -0.866026
    outer loop
      vertex -45.5485 6.9999 -7.4395
      vertex -44.0083 0 -8.32875
      vertex -45.5485 0 -7.4395
    endloop
  endfacet
  facet normal 0.173648 -2.18671e-16 -0.984808
    outer loop
      vertex -45.5485 6.9999 -7.4395
      vertex -45.5485 0 -7.4395
      vertex -47.3 6.9999 -7.74833
    endloop
  endfacet
  facet normal 0.173648 -2.18671e-16 -0.984808
    outer loop
      vertex -47.3 6.9999 -7.74833
      vertex -45.5485 0 -7.4395
      vertex -47.3 0 -7.74833
    endloop
  endfacet
  facet normal 0.766044 -1.42728e-16 -0.642788
    outer loop
      vertex -48.4432 6.9999 -9.11075
      vertex -47.3 6.9999 -7.74833
      vertex -47.3 0 -7.74833
    endloop
  endfacet
  facet normal 0.766044 -1.42728e-16 -0.642788
    outer loop
      vertex -48.4432 0 -9.11075
      vertex -48.4432 6.9999 -9.11075
      vertex -47.3 0 -7.74833
    endloop
  endfacet
  facet normal -1 1.22465e-16 2.22045e-16
    outer loop
      vertex -38 23.7216 -7.29613
      vertex -38 25 -5.1
      vertex -38 24.4996 -9.04359
    endloop
  endfacet
  facet normal -1 1.22465e-16 2.22045e-16
    outer loop
      vertex -38 18.5785 -14.375
      vertex -38 25 -15.1
      vertex -38 10 -15.1
    endloop
  endfacet
  facet normal -1 1.22465e-16 2.22045e-16
    outer loop
      vertex -38 20.4808 -14.5749
      vertex -38 25 -15.1
      vertex -38 18.5785 -14.375
    endloop
  endfacet
  facet normal -1 1.22465e-16 2.22045e-16
    outer loop
      vertex -38 16.9219 -13.4185
      vertex -38 18.5785 -14.375
      vertex -38 10 -15.1
    endloop
  endfacet
  facet normal -1 1.22465e-16 2.22045e-16
    outer loop
      vertex -38 22.3 -13.9838
      vertex -38 25 -15.1
      vertex -38 20.4808 -14.5749
    endloop
  endfacet
  facet normal -1 1.22465e-16 2.22045e-16
    outer loop
      vertex -38 24.4996 -10.9564
      vertex -38 25 -15.1
      vertex -38 23.7216 -12.7039
    endloop
  endfacet
  facet normal -1 1.22465e-16 2.22045e-16
    outer loop
      vertex -38 25 -5.1
      vertex -38 25 -15.1
      vertex -38 24.4996 -10.9564
    endloop
  endfacet
  facet normal -1 1.22465e-16 2.22045e-16
    outer loop
      vertex -38 25 -5.1
      vertex -38 24.4996 -10.9564
      vertex -38 24.4996 -9.04359
    endloop
  endfacet
  facet normal -1 1.22465e-16 2.22045e-16
    outer loop
      vertex -38 16.9219 -6.58146
      vertex -38 10 -5.1
      vertex -38 18.5785 -5.62505
    endloop
  endfacet
  facet normal -1 1.22465e-16 2.22045e-16
    outer loop
      vertex -38 25 -5.1
      vertex -38 23.7216 -7.29613
      vertex -38 22.3 -6.0162
    endloop
  endfacet
  facet normal -1 1.22465e-16 2.22045e-16
    outer loop
      vertex -38 25 -5.1
      vertex -38 22.3 -6.0162
      vertex -38 20.4808 -5.4251
    endloop
  endfacet
  facet normal -1 1.22465e-16 2.22045e-16
    outer loop
      vertex -38 25 -5.1
      vertex -38 20.4808 -5.4251
      vertex -38 10 -5.1
    endloop
  endfacet
  facet normal -1 1.22465e-16 2.22045e-16
    outer loop
      vertex -38 20.4808 -5.4251
      vertex -38 18.5785 -5.62505
      vertex -38 10 -5.1
    endloop
  endfacet
  facet normal -1 1.22465e-16 2.22045e-16
    outer loop
      vertex -38 15.3999 -10
      vertex -38 10 -5.1
      vertex -38 15.7976 -8.12897
    endloop
  endfacet
  facet normal -1 1.22465e-16 2.22045e-16
    outer loop
      vertex -38 16.9219 -6.58146
      vertex -38 15.7976 -8.12897
      vertex -38 10 -5.1
    endloop
  endfacet
  facet normal -1 1.22465e-16 2.22045e-16
    outer loop
      vertex -38 15.7976 -11.871
      vertex -38 10 -5.1
      vertex -38 15.3999 -10
    endloop
  endfacet
  facet normal -1 1.22465e-16 2.22045e-16
    outer loop
      vertex -38 10 -5.1
      vertex -38 15.7976 -11.871
      vertex -38 10 -15.1
    endloop
  endfacet
  facet normal -1 1.22465e-16 2.22045e-16
    outer loop
      vertex -38 15.7976 -11.871
      vertex -38 16.9219 -13.4185
      vertex -38 10 -15.1
    endloop
  endfacet
  facet normal -1 1.22465e-16 2.22045e-16
    outer loop
      vertex -38 23.7216 -12.7039
      vertex -38 25 -15.1
      vertex -38 22.3 -13.9838
    endloop
  endfacet
  facet normal 0.866025 1.11022e-16 0.5
    outer loop
      vertex -63.3 6.9999 -13.9838
      vertex -63.3 10 -13.9838
      vertex -65.6001 10 -10
    endloop
  endfacet
  facet normal 0.866025 1.11022e-16 0.5
    outer loop
      vertex -65.6001 6.9999 -10
      vertex -63.3 6.9999 -13.9838
      vertex -65.6001 10 -10
    endloop
  endfacet
  facet normal 0 2.22045e-16 1
    outer loop
      vertex -58.6999 6.9999 -13.9838
      vertex -58.6999 10 -13.9838
      vertex -63.3 10 -13.9838
    endloop
  endfacet
  facet normal 0 2.22045e-16 1
    outer loop
      vertex -63.3 6.9999 -13.9838
      vertex -58.6999 6.9999 -13.9838
      vertex -63.3 10 -13.9838
    endloop
  endfacet
  facet normal 0.866025 -1.11022e-16 -0.5
    outer loop
      vertex -65.6001 10 -10
      vertex -63.3 10 -6.0162
      vertex -63.3 6.9999 -6.0162
    endloop
  endfacet
  facet normal 0.866025 -1.11022e-16 -0.5
    outer loop
      vertex -65.6001 6.9999 -10
      vertex -65.6001 10 -10
      vertex -63.3 6.9999 -6.0162
    endloop
  endfacet
  facet normal 0 -2.22045e-16 -1
    outer loop
      vertex -58.6999 10 -6.0162
      vertex -58.6999 6.9999 -6.0162
      vertex -63.3 10 -6.0162
    endloop
  endfacet
  facet normal 0 -2.22045e-16 -1
    outer loop
      vertex -63.3 10 -6.0162
      vertex -58.6999 6.9999 -6.0162
      vertex -63.3 6.9999 -6.0162
    endloop
  endfacet
  facet normal -0.866025 -1.11022e-16 -0.5
    outer loop
      vertex -56.3999 10 -10
      vertex -56.3999 6.9999 -10
      vertex -58.6999 10 -6.0162
    endloop
  endfacet
  facet normal -0.866025 -1.11022e-16 -0.5
    outer loop
      vertex -58.6999 10 -6.0162
      vertex -56.3999 6.9999 -10
      vertex -58.6999 6.9999 -6.0162
    endloop
  endfacet
  facet normal -0.866025 1.11022e-16 0.5
    outer loop
      vertex -56.3999 10 -10
      vertex -58.6999 10 -13.9838
      vertex -56.3999 6.9999 -10
    endloop
  endfacet
  facet normal -0.866025 1.11022e-16 0.5
    outer loop
      vertex -56.3999 6.9999 -10
      vertex -58.6999 10 -13.9838
      vertex -58.6999 6.9999 -13.9838
    endloop
  endfacet
  facet normal 0 2.22045e-16 1
    outer loop
      vertex -43.6999 6.9999 -13.9838
      vertex -43.6999 10 -13.9838
      vertex -48.3 10 -13.9838
    endloop
  endfacet
  facet normal 0 2.22045e-16 1
    outer loop
      vertex -48.3 6.9999 -13.9838
      vertex -43.6999 6.9999 -13.9838
      vertex -48.3 10 -13.9838
    endloop
  endfacet
  facet normal 0.866025 1.11022e-16 0.5
    outer loop
      vertex -48.3 6.9999 -13.9838
      vertex -48.3 10 -13.9838
      vertex -50.6001 10 -10
    endloop
  endfacet
  facet normal 0.866025 1.11022e-16 0.5
    outer loop
      vertex -50.6001 6.9999 -10
      vertex -48.3 6.9999 -13.9838
      vertex -50.6001 10 -10
    endloop
  endfacet
  facet normal 0.866025 -1.11022e-16 -0.5
    outer loop
      vertex -50.6001 10 -10
      vertex -48.3 10 -6.0162
      vertex -48.3 6.9999 -6.0162
    endloop
  endfacet
  facet normal 0.866025 -1.11022e-16 -0.5
    outer loop
      vertex -50.6001 6.9999 -10
      vertex -50.6001 10 -10
      vertex -48.3 6.9999 -6.0162
    endloop
  endfacet
  facet normal 0 -2.22045e-16 -1
    outer loop
      vertex -43.6999 10 -6.0162
      vertex -43.6999 6.9999 -6.0162
      vertex -48.3 10 -6.0162
    endloop
  endfacet
  facet normal 0 -2.22045e-16 -1
    outer loop
      vertex -48.3 10 -6.0162
      vertex -43.6999 6.9999 -6.0162
      vertex -48.3 6.9999 -6.0162
    endloop
  endfacet
  facet normal -0.866025 -1.11022e-16 -0.5
    outer loop
      vertex -41.3999 10 -10
      vertex -41.3999 6.9999 -10
      vertex -43.6999 10 -6.0162
    endloop
  endfacet
  facet normal -0.866025 -1.11022e-16 -0.5
    outer loop
      vertex -43.6999 10 -6.0162
      vertex -41.3999 6.9999 -10
      vertex -43.6999 6.9999 -6.0162
    endloop
  endfacet
  facet normal -0.866025 1.11022e-16 0.5
    outer loop
      vertex -41.3999 10 -10
      vertex -43.6999 10 -13.9838
      vertex -41.3999 6.9999 -10
    endloop
  endfacet
  facet normal -0.866025 1.11022e-16 0.5
    outer loop
      vertex -41.3999 6.9999 -10
      vertex -43.6999 10 -13.9838
      vertex -43.6999 6.9999 -13.9838
    endloop
  endfacet
  facet normal 1 0 1.22465e-16
    outer loop
      vertex -30 22.4881 -10
      vertex -30 30.1 -20
      vertex -30 30.1 -3.67394e-15
    endloop
  endfacet
  facet normal 1 0 1.22465e-16
    outer loop
      vertex -30 18.2406 -11.7594
      vertex -30 17.5119 -10
      vertex -30 9.9 -20
    endloop
  endfacet
  facet normal 1 0 1.22465e-16
    outer loop
      vertex -30 9.9 -3.67394e-15
      vertex -30 20 -7.5119
      vertex -30 30.1 -3.67394e-15
    endloop
  endfacet
  facet normal 1 0 1.22465e-16
    outer loop
      vertex -30 20 -7.5119
      vertex -30 21.7594 -8.24065
      vertex -30 30.1 -3.67394e-15
    endloop
  endfacet
  facet normal 1 0 1.22465e-16
    outer loop
      vertex -30 21.7594 -11.7594
      vertex -30 30.1 -20
      vertex -30 22.4881 -10
    endloop
  endfacet
  facet normal 1 0 1.22465e-16
    outer loop
      vertex -30 9.9 -20
      vertex -30 30.1 -20
      vertex -30 21.7594 -11.7594
    endloop
  endfacet
  facet normal 1 0 1.22465e-16
    outer loop
      vertex -30 9.9 -20
      vertex -30 21.7594 -11.7594
      vertex -30 20 -12.4881
    endloop
  endfacet
  facet normal 1 0 1.22465e-16
    outer loop
      vertex -30 20 -12.4881
      vertex -30 18.2406 -11.7594
      vertex -30 9.9 -20
    endloop
  endfacet
  facet normal 1 0 1.22465e-16
    outer loop
      vertex -30 9.9 -3.67394e-15
      vertex -30 9.9 -20
      vertex -30 17.5119 -10
    endloop
  endfacet
  facet normal 1 0 1.22465e-16
    outer loop
      vertex -30 9.9 -3.67394e-15
      vertex -30 18.2406 -8.24065
      vertex -30 20 -7.5119
    endloop
  endfacet
  facet normal 1 0 1.22465e-16
    outer loop
      vertex -30 9.9 -3.67394e-15
      vertex -30 17.5119 -10
      vertex -30 18.2406 -8.24065
    endloop
  endfacet
  facet normal 1 0 1.22465e-16
    outer loop
      vertex -30 21.7594 -8.24065
      vertex -30 22.4881 -10
      vertex -30 30.1 -3.67394e-15
    endloop
  endfacet
  facet normal 0 1 0
    outer loop
      vertex -10 9.9 -20
      vertex -30 9.9 -20
      vertex -10 9.9 -1.22465e-15
    endloop
  endfacet
  facet normal 0 1 0
    outer loop
      vertex -10 9.9 -1.22465e-15
      vertex -30 9.9 -20
      vertex -30 9.9 -3.67394e-15
    endloop
  endfacet
  facet normal -1 0 -1.22465e-16
    outer loop
      vertex -10 21.7594 -8.24065
      vertex -10 30.1 -1.22465e-15
      vertex -10 22.4881 -10
    endloop
  endfacet
  facet normal -1 0 -1.22465e-16
    outer loop
      vertex -10 18.2406 -8.24065
      vertex -10 9.9 -20
      vertex -10 9.9 -1.22465e-15
    endloop
  endfacet
  facet normal -1 0 -1.22465e-16
    outer loop
      vertex -10 30.1 -1.22465e-15
      vertex -10 20 -7.5119
      vertex -10 9.9 -1.22465e-15
    endloop
  endfacet
  facet normal -1 0 -1.22465e-16
    outer loop
      vertex -10 17.5119 -10
      vertex -10 9.9 -20
      vertex -10 18.2406 -8.24065
    endloop
  endfacet
  facet normal -1 0 -1.22465e-16
    outer loop
      vertex -10 20 -7.5119
      vertex -10 18.2406 -8.24065
      vertex -10 9.9 -1.22465e-15
    endloop
  endfacet
  facet normal -1 0 -1.22465e-16
    outer loop
      vertex -10 30.1 -20
      vertex -10 9.9 -20
      vertex -10 18.2406 -11.7594
    endloop
  endfacet
  facet normal -1 0 -1.22465e-16
    outer loop
      vertex -10 30.1 -20
      vertex -10 18.2406 -11.7594
      vertex -10 20 -12.4881
    endloop
  endfacet
  facet normal -1 0 -1.22465e-16
    outer loop
      vertex -10 30.1 -20
      vertex -10 20 -12.4881
      vertex -10 21.7594 -11.7594
    endloop
  endfacet
  facet normal -1 0 -1.22465e-16
    outer loop
      vertex -10 30.1 -20
      vertex -10 21.7594 -11.7594
      vertex -10 30.1 -1.22465e-15
    endloop
  endfacet
  facet normal -1 0 -1.22465e-16
    outer loop
      vertex -10 21.7594 -11.7594
      vertex -10 22.4881 -10
      vertex -10 30.1 -1.22465e-15
    endloop
  endfacet
  facet normal -1 0 -1.22465e-16
    outer loop
      vertex -10 30.1 -1.22465e-15
      vertex -10 21.7594 -8.24065
      vertex -10 20 -7.5119
    endloop
  endfacet
  facet normal -1 0 -1.22465e-16
    outer loop
      vertex -10 18.2406 -11.7594
      vertex -10 9.9 -20
      vertex -10 17.5119 -10
    endloop
  endfacet
  facet normal 0 -1 0
    outer loop
      vertex -30 30.1 -20
      vertex -10 30.1 -20
      vertex -10 30.1 -1.22465e-15
    endloop
  endfacet
  facet normal 0 -1 0
    outer loop
      vertex -30 30.1 -3.67394e-15
      vertex -30 30.1 -20
      vertex -10 30.1 -1.22465e-15
    endloop
  endfacet
  facet normal -8.91943e-17 0.915773 0.401696
    outer loop
      vertex 25 14.977 -12.2817
      vertex 7.28681e-16 14.977 -12.2817
      vertex 25 14.1836 -10.4729
    endloop
  endfacet
  facet normal -8.91943e-17 0.915773 0.401696
    outer loop
      vertex 25 14.1836 -10.4729
      vertex 7.28681e-16 14.977 -12.2817
      vertex 3.27052e-16 14.1836 -10.4729
    endloop
  endfacet
  facet normal -1.83363e-17 0.996585 0.0825792
    outer loop
      vertex 25 14.1836 -10.4729
      vertex 3.27052e-16 14.1836 -10.4729
      vertex 25 14.0205 -8.50452
    endloop
  endfacet
  facet normal -1.83363e-17 0.996585 0.0825792
    outer loop
      vertex 25 14.0205 -8.50452
      vertex 3.27052e-16 14.1836 -10.4729
      vertex -1.10018e-16 14.0205 -8.50452
    endloop
  endfacet
  facet normal -1.50387e-16 0.735724 0.677282
    outer loop
      vertex 25 16.3147 -13.7348
      vertex 1.05135e-15 16.3147 -13.7348
      vertex 25 14.977 -12.2817
    endloop
  endfacet
  facet normal -1.50387e-16 0.735724 0.677282
    outer loop
      vertex 25 14.977 -12.2817
      vertex 1.05135e-15 16.3147 -13.7348
      vertex 7.28681e-16 14.977 -12.2817
    endloop
  endfacet
  facet normal -1.95282e-16 0.475947 0.879474
    outer loop
      vertex 25 16.3147 -13.7348
      vertex 25 18.0518 -14.6749
      vertex 1.26008e-15 18.0518 -14.6749
    endloop
  endfacet
  facet normal -1.95282e-16 0.475947 0.879474
    outer loop
      vertex 1.05135e-15 16.3147 -13.7348
      vertex 25 16.3147 -13.7348
      vertex 1.26008e-15 18.0518 -14.6749
    endloop
  endfacet
  facet normal -2.19016e-16 0.164595 0.986361
    outer loop
      vertex 25 18.0518 -14.6749
      vertex 25 20 -15
      vertex 1.33227e-15 20 -15
    endloop
  endfacet
  facet normal -2.19016e-16 0.164595 0.986361
    outer loop
      vertex 1.26008e-15 18.0518 -14.6749
      vertex 25 18.0518 -14.6749
      vertex 1.33227e-15 20 -15
    endloop
  endfacet
  facet normal -2.19016e-16 -0.164595 0.986361
    outer loop
      vertex 1.33227e-15 20 -15
      vertex 25 20 -15
      vertex 25 21.9482 -14.6749
    endloop
  endfacet
  facet normal -2.19016e-16 -0.164595 0.986361
    outer loop
      vertex 1.26008e-15 21.9482 -14.6749
      vertex 1.33227e-15 20 -15
      vertex 25 21.9482 -14.6749
    endloop
  endfacet
  facet normal -1.95282e-16 -0.475947 0.879474
    outer loop
      vertex 1.26008e-15 21.9482 -14.6749
      vertex 25 21.9482 -14.6749
      vertex 25 23.6853 -13.7348
    endloop
  endfacet
  facet normal -1.95282e-16 -0.475947 0.879474
    outer loop
      vertex 1.05135e-15 23.6853 -13.7348
      vertex 1.26008e-15 21.9482 -14.6749
      vertex 25 23.6853 -13.7348
    endloop
  endfacet
  facet normal -1.50387e-16 -0.735724 0.677282
    outer loop
      vertex 1.05135e-15 23.6853 -13.7348
      vertex 25 23.6853 -13.7348
      vertex 25 25.023 -12.2817
    endloop
  endfacet
  facet normal -1.50387e-16 -0.735724 0.677282
    outer loop
      vertex 7.28681e-16 25.023 -12.2817
      vertex 1.05135e-15 23.6853 -13.7348
      vertex 25 25.023 -12.2817
    endloop
  endfacet
  facet normal -8.91943e-17 -0.915773 0.401696
    outer loop
      vertex 7.28681e-16 25.023 -12.2817
      vertex 25 25.023 -12.2817
      vertex 25 25.8164 -10.4729
    endloop
  endfacet
  facet normal -8.91943e-17 -0.915773 0.401696
    outer loop
      vertex 3.27052e-16 25.8164 -10.4729
      vertex 7.28681e-16 25.023 -12.2817
      vertex 25 25.8164 -10.4729
    endloop
  endfacet
  facet normal -1.83363e-17 -0.996585 0.0825792
    outer loop
      vertex 3.27052e-16 25.8164 -10.4729
      vertex 25 25.8164 -10.4729
      vertex 25 25.9795 -8.50452
    endloop
  endfacet
  facet normal -1.83363e-17 -0.996585 0.0825792
    outer loop
      vertex -1.10018e-16 25.9795 -8.50452
      vertex 3.27052e-16 25.8164 -10.4729
      vertex 25 25.9795 -8.50452
    endloop
  endfacet
  facet normal 5.45087e-17 -0.9694 -0.245485
    outer loop
      vertex -1.10018e-16 25.9795 -8.50452
      vertex 25 25.9795 -8.50452
      vertex 25 25.4946 -6.58983
    endloop
  endfacet
  facet normal 5.45087e-17 -0.9694 -0.245485
    outer loop
      vertex -5.35166e-16 25.4946 -6.58983
      vertex -1.10018e-16 25.9795 -8.50452
      vertex 25 25.4946 -6.58983
    endloop
  endfacet
  facet normal 1.21447e-16 -0.837166 -0.546949
    outer loop
      vertex -5.35166e-16 25.4946 -6.58983
      vertex 25 25.4946 -6.58983
      vertex 25 24.4143 -4.93631
    endloop
  endfacet
  facet normal 1.21447e-16 -0.837166 -0.546949
    outer loop
      vertex -9.0232e-16 24.4143 -4.93631
      vertex -5.35166e-16 25.4946 -6.58983
      vertex 25 24.4143 -4.93631
    endloop
  endfacet
  facet normal 1.75224e-16 -0.614213 -0.78914
    outer loop
      vertex 25 24.4143 -4.93631
      vertex 25 22.8557 -3.72316
      vertex -9.0232e-16 24.4143 -4.93631
    endloop
  endfacet
  facet normal 1.75224e-16 -0.614213 -0.78914
    outer loop
      vertex -9.0232e-16 24.4143 -4.93631
      vertex 25 22.8557 -3.72316
      vertex -1.17169e-15 22.8557 -3.72316
    endloop
  endfacet
  facet normal 2.10014e-16 -0.324699 -0.945817
    outer loop
      vertex 25 22.8557 -3.72316
      vertex 25 20.9876 -3.08183
      vertex -1.17169e-15 22.8557 -3.72316
    endloop
  endfacet
  facet normal 2.10014e-16 -0.324699 -0.945817
    outer loop
      vertex -1.17169e-15 22.8557 -3.72316
      vertex 25 20.9876 -3.08183
      vertex -1.3141e-15 20.9876 -3.08183
    endloop
  endfacet
  facet normal 2.22045e-16 0 -1
    outer loop
      vertex 25 20.9876 -3.08183
      vertex 25 19.0124 -3.08183
      vertex -1.3141e-15 20.9876 -3.08183
    endloop
  endfacet
  facet normal 2.22045e-16 0 -1
    outer loop
      vertex -1.3141e-15 20.9876 -3.08183
      vertex 25 19.0124 -3.08183
      vertex -1.3141e-15 19.0124 -3.08183
    endloop
  endfacet
  facet normal 2.10014e-16 0.324699 -0.945817
    outer loop
      vertex 25 17.1443 -3.72316
      vertex -1.17169e-15 17.1443 -3.72316
      vertex 25 19.0124 -3.08183
    endloop
  endfacet
  facet normal 2.10014e-16 0.324699 -0.945817
    outer loop
      vertex 25 19.0124 -3.08183
      vertex -1.17169e-15 17.1443 -3.72316
      vertex -1.3141e-15 19.0124 -3.08183
    endloop
  endfacet
  facet normal 1.75224e-16 0.614213 -0.78914
    outer loop
      vertex 25 15.5857 -4.93631
      vertex -9.0232e-16 15.5857 -4.93631
      vertex 25 17.1443 -3.72316
    endloop
  endfacet
  facet normal 1.75224e-16 0.614213 -0.78914
    outer loop
      vertex 25 17.1443 -3.72316
      vertex -9.0232e-16 15.5857 -4.93631
      vertex -1.17169e-15 17.1443 -3.72316
    endloop
  endfacet
  facet normal 1.21447e-16 0.837166 -0.546949
    outer loop
      vertex 25 14.5054 -6.58983
      vertex -5.35166e-16 14.5054 -6.58983
      vertex 25 15.5857 -4.93631
    endloop
  endfacet
  facet normal 1.21447e-16 0.837166 -0.546949
    outer loop
      vertex 25 15.5857 -4.93631
      vertex -5.35166e-16 14.5054 -6.58983
      vertex -9.0232e-16 15.5857 -4.93631
    endloop
  endfacet
  facet normal 5.45087e-17 0.9694 -0.245485
    outer loop
      vertex 25 14.0205 -8.50452
      vertex -1.10018e-16 14.0205 -8.50452
      vertex 25 14.5054 -6.58983
    endloop
  endfacet
  facet normal 5.45087e-17 0.9694 -0.245485
    outer loop
      vertex 25 14.5054 -6.58983
      vertex -1.10018e-16 14.0205 -8.50452
      vertex -5.35166e-16 14.5054 -6.58983
    endloop
  endfacet
  facet normal 0 1 -2.22045e-16
    outer loop
      vertex -62.3 6.9999 -7.74833
      vertex -63.3 6.9999 -6.0162
      vertex -60.5485 6.9999 -7.4395
    endloop
  endfacet
  facet normal 0 1 -2.22045e-16
    outer loop
      vertex -59.0083 6.9999 -11.6712
      vertex -56.3999 6.9999 -10
      vertex -58.6999 6.9999 -13.9838
    endloop
  endfacet
  facet normal 0 1 -2.22045e-16
    outer loop
      vertex -62.3 6.9999 -12.2517
      vertex -58.6999 6.9999 -13.9838
      vertex -63.3 6.9999 -13.9838
    endloop
  endfacet
  facet normal 0 1 -2.22045e-16
    outer loop
      vertex -63.4432 6.9999 -10.8893
      vertex -63.3 6.9999 -13.9838
      vertex -65.6001 6.9999 -10
    endloop
  endfacet
  facet normal 0 1 -2.22045e-16
    outer loop
      vertex -63.4432 6.9999 -9.11075
      vertex -63.4432 6.9999 -10.8893
      vertex -65.6001 6.9999 -10
    endloop
  endfacet
  facet normal 0 1 -2.22045e-16
    outer loop
      vertex -60.5485 6.9999 -12.5605
      vertex -58.6999 6.9999 -13.9838
      vertex -62.3 6.9999 -12.2517
    endloop
  endfacet
  facet normal 0 1 -2.22045e-16
    outer loop
      vertex -59.0083 6.9999 -11.6712
      vertex -58.6999 6.9999 -13.9838
      vertex -60.5485 6.9999 -12.5605
    endloop
  endfacet
  facet normal 0 1 -2.22045e-16
    outer loop
      vertex -58.4 6.9999 -10
      vertex -56.3999 6.9999 -10
      vertex -59.0083 6.9999 -11.6712
    endloop
  endfacet
  facet normal 0 1 -2.22045e-16
    outer loop
      vertex -59.0083 6.9999 -8.32875
      vertex -56.3999 6.9999 -10
      vertex -58.4 6.9999 -10
    endloop
  endfacet
  facet normal 0 1 -2.22045e-16
    outer loop
      vertex -58.6999 6.9999 -6.0162
      vertex -56.3999 6.9999 -10
      vertex -59.0083 6.9999 -8.32875
    endloop
  endfacet
  facet normal 0 1 -2.22045e-16
    outer loop
      vertex -58.6999 6.9999 -6.0162
      vertex -59.0083 6.9999 -8.32875
      vertex -60.5485 6.9999 -7.4395
    endloop
  endfacet
  facet normal 0 1 -2.22045e-16
    outer loop
      vertex -58.6999 6.9999 -6.0162
      vertex -60.5485 6.9999 -7.4395
      vertex -63.3 6.9999 -6.0162
    endloop
  endfacet
  facet normal 0 1 -2.22045e-16
    outer loop
      vertex -63.4432 6.9999 -9.11075
      vertex -63.3 6.9999 -6.0162
      vertex -62.3 6.9999 -7.74833
    endloop
  endfacet
  facet normal 0 1 -2.22045e-16
    outer loop
      vertex -63.3 6.9999 -6.0162
      vertex -63.4432 6.9999 -9.11075
      vertex -65.6001 6.9999 -10
    endloop
  endfacet
  facet normal 0 1 -2.22045e-16
    outer loop
      vertex -62.3 6.9999 -12.2517
      vertex -63.3 6.9999 -13.9838
      vertex -63.4432 6.9999 -10.8893
    endloop
  endfacet
  facet normal 0 1 -2.22045e-16
    outer loop
      vertex -47.3 6.9999 -7.74833
      vertex -48.3 6.9999 -6.0162
      vertex -45.5485 6.9999 -7.4395
    endloop
  endfacet
  facet normal 0 1 -2.22045e-16
    outer loop
      vertex -44.0083 6.9999 -11.6712
      vertex -41.3999 6.9999 -10
      vertex -43.6999 6.9999 -13.9838
    endloop
  endfacet
  facet normal 0 1 -2.22045e-16
    outer loop
      vertex -47.3 6.9999 -12.2517
      vertex -43.6999 6.9999 -13.9838
      vertex -48.3 6.9999 -13.9838
    endloop
  endfacet
  facet normal 0 1 -2.22045e-16
    outer loop
      vertex -48.4432 6.9999 -10.8893
      vertex -48.3 6.9999 -13.9838
      vertex -50.6001 6.9999 -10
    endloop
  endfacet
  facet normal 0 1 -2.22045e-16
    outer loop
      vertex -48.4432 6.9999 -9.11075
      vertex -48.4432 6.9999 -10.8893
      vertex -50.6001 6.9999 -10
    endloop
  endfacet
  facet normal 0 1 -2.22045e-16
    outer loop
      vertex -45.5485 6.9999 -12.5605
      vertex -43.6999 6.9999 -13.9838
      vertex -47.3 6.9999 -12.2517
    endloop
  endfacet
  facet normal 0 1 -2.22045e-16
    outer loop
      vertex -44.0083 6.9999 -11.6712
      vertex -43.6999 6.9999 -13.9838
      vertex -45.5485 6.9999 -12.5605
    endloop
  endfacet
  facet normal 0 1 -2.22045e-16
    outer loop
      vertex -43.4 6.9999 -10
      vertex -41.3999 6.9999 -10
      vertex -44.0083 6.9999 -11.6712
    endloop
  endfacet
  facet normal 0 1 -2.22045e-16
    outer loop
      vertex -44.0083 6.9999 -8.32875
      vertex -41.3999 6.9999 -10
      vertex -43.4 6.9999 -10
    endloop
  endfacet
  facet normal 0 1 -2.22045e-16
    outer loop
      vertex -43.6999 6.9999 -6.0162
      vertex -41.3999 6.9999 -10
      vertex -44.0083 6.9999 -8.32875
    endloop
  endfacet
  facet normal 0 1 -2.22045e-16
    outer loop
      vertex -43.6999 6.9999 -6.0162
      vertex -44.0083 6.9999 -8.32875
      vertex -45.5485 6.9999 -7.4395
    endloop
  endfacet
  facet normal 0 1 -2.22045e-16
    outer loop
      vertex -43.6999 6.9999 -6.0162
      vertex -45.5485 6.9999 -7.4395
      vertex -48.3 6.9999 -6.0162
    endloop
  endfacet
  facet normal 0 1 -2.22045e-16
    outer loop
      vertex -48.4432 6.9999 -9.11075
      vertex -48.3 6.9999 -6.0162
      vertex -47.3 6.9999 -7.74833
    endloop
  endfacet
  facet normal 0 1 -2.22045e-16
    outer loop
      vertex -48.3 6.9999 -6.0162
      vertex -48.4432 6.9999 -9.11075
      vertex -50.6001 6.9999 -10
    endloop
  endfacet
  facet normal 0 1 -2.22045e-16
    outer loop
      vertex -47.3 6.9999 -12.2517
      vertex -48.3 6.9999 -13.9838
      vertex -48.4432 6.9999 -10.8893
    endloop
  endfacet
  facet normal 7.58244e-17 0.104528 0.994522
    outer loop
      vertex -37 18.5785 -14.375
      vertex -37 20.4808 -14.5749
      vertex -38 20.4808 -14.5749
    endloop
  endfacet
  facet normal 7.58244e-17 0.104528 0.994522
    outer loop
      vertex -38 18.5785 -14.375
      vertex -37 18.5785 -14.375
      vertex -38 20.4808 -14.5749
    endloop
  endfacet
  facet normal -2.47835e-17 0.5 0.866026
    outer loop
      vertex -38 16.9219 -13.4185
      vertex -37 16.9219 -13.4185
      vertex -37 18.5785 -14.375
    endloop
  endfacet
  facet normal -2.47835e-17 0.5 0.866026
    outer loop
      vertex -38 18.5785 -14.375
      vertex -38 16.9219 -13.4185
      vertex -37 18.5785 -14.375
    endloop
  endfacet
  facet normal -1.21106e-16 0.809017 0.587785
    outer loop
      vertex -37 15.7976 -11.871
      vertex -37 16.9219 -13.4185
      vertex -38 15.7976 -11.871
    endloop
  endfacet
  facet normal -1.21106e-16 0.809017 0.587785
    outer loop
      vertex -38 15.7976 -11.871
      vertex -37 16.9219 -13.4185
      vertex -38 16.9219 -13.4185
    endloop
  endfacet
  facet normal -1.96489e-16 0.978148 0.207912
    outer loop
      vertex -37 15.3999 -10
      vertex -37 15.7976 -11.871
      vertex -38 15.3999 -10
    endloop
  endfacet
  facet normal -1.96489e-16 0.978148 0.207912
    outer loop
      vertex -38 15.3999 -10
      vertex -37 15.7976 -11.871
      vertex -38 15.7976 -11.871
    endloop
  endfacet
  facet normal -2.37896e-16 0.978148 -0.207912
    outer loop
      vertex -37 15.7976 -8.12897
      vertex -37 15.3999 -10
      vertex -38 15.7976 -8.12897
    endloop
  endfacet
  facet normal -2.37896e-16 0.978148 -0.207912
    outer loop
      vertex -38 15.7976 -8.12897
      vertex -37 15.3999 -10
      vertex -38 15.3999 -10
    endloop
  endfacet
  facet normal -2.38169e-16 0.809017 -0.587785
    outer loop
      vertex -37 16.9219 -6.58146
      vertex -37 15.7976 -8.12897
      vertex -38 16.9219 -6.58146
    endloop
  endfacet
  facet normal -2.38169e-16 0.809017 -0.587785
    outer loop
      vertex -38 16.9219 -6.58146
      vertex -37 15.7976 -8.12897
      vertex -38 15.7976 -8.12897
    endloop
  endfacet
  facet normal -1.97261e-16 0.5 -0.866026
    outer loop
      vertex -37 18.5785 -5.62505
      vertex -37 16.9219 -6.58146
      vertex -38 18.5785 -5.62505
    endloop
  endfacet
  facet normal -1.97261e-16 0.5 -0.866026
    outer loop
      vertex -38 18.5785 -5.62505
      vertex -37 16.9219 -6.58146
      vertex -38 16.9219 -6.58146
    endloop
  endfacet
  facet normal -1.22244e-16 0.104528 -0.994522
    outer loop
      vertex -37 20.4808 -5.4251
      vertex -37 18.5785 -5.62505
      vertex -38 20.4808 -5.4251
    endloop
  endfacet
  facet normal -1.22244e-16 0.104528 -0.994522
    outer loop
      vertex -38 20.4808 -5.4251
      vertex -37 18.5785 -5.62505
      vertex -38 18.5785 -5.62505
    endloop
  endfacet
  facet normal -2.60906e-17 -0.309017 -0.951056
    outer loop
      vertex -37 22.3 -6.0162
      vertex -37 20.4808 -5.4251
      vertex -38 22.3 -6.0162
    endloop
  endfacet
  facet normal -2.60906e-17 -0.309017 -0.951056
    outer loop
      vertex -38 22.3 -6.0162
      vertex -37 20.4808 -5.4251
      vertex -38 20.4808 -5.4251
    endloop
  endfacet
  facet normal 7.45745e-17 -0.66913 -0.743145
    outer loop
      vertex -37 22.3 -6.0162
      vertex -38 22.3 -6.0162
      vertex -37 23.7216 -7.29613
    endloop
  endfacet
  facet normal 7.45745e-17 -0.66913 -0.743145
    outer loop
      vertex -37 23.7216 -7.29613
      vertex -38 22.3 -6.0162
      vertex -38 23.7216 -7.29613
    endloop
  endfacet
  facet normal 1.62345e-16 -0.913545 -0.406737
    outer loop
      vertex -37 24.4996 -9.04359
      vertex -37 23.7216 -7.29613
      vertex -38 23.7216 -7.29613
    endloop
  endfacet
  facet normal 1.62345e-16 -0.913545 -0.406737
    outer loop
      vertex -38 24.4996 -9.04359
      vertex -37 24.4996 -9.04359
      vertex -38 23.7216 -7.29613
    endloop
  endfacet
  facet normal 2.22045e-16 -1 -2.21112e-32
    outer loop
      vertex -37 24.4996 -10.9564
      vertex -37 24.4996 -9.04359
      vertex -38 24.4996 -9.04359
    endloop
  endfacet
  facet normal 2.22045e-16 -1 -2.21112e-32
    outer loop
      vertex -38 24.4996 -10.9564
      vertex -37 24.4996 -10.9564
      vertex -38 24.4996 -9.04359
    endloop
  endfacet
  facet normal 2.43351e-16 -0.913545 0.406737
    outer loop
      vertex -37 23.7216 -12.7039
      vertex -37 24.4996 -10.9564
      vertex -38 24.4996 -10.9564
    endloop
  endfacet
  facet normal 2.43351e-16 -0.913545 0.406737
    outer loop
      vertex -38 23.7216 -12.7039
      vertex -37 23.7216 -12.7039
      vertex -38 24.4996 -10.9564
    endloop
  endfacet
  facet normal 2.22579e-16 -0.66913 0.743145
    outer loop
      vertex -37 22.3 -13.9838
      vertex -37 23.7216 -12.7039
      vertex -38 23.7216 -12.7039
    endloop
  endfacet
  facet normal 2.22579e-16 -0.66913 0.743145
    outer loop
      vertex -38 22.3 -13.9838
      vertex -37 22.3 -13.9838
      vertex -38 23.7216 -12.7039
    endloop
  endfacet
  facet normal 1.63322e-16 -0.309017 0.951056
    outer loop
      vertex -37 20.4808 -14.5749
      vertex -37 22.3 -13.9838
      vertex -38 22.3 -13.9838
    endloop
  endfacet
  facet normal 1.63322e-16 -0.309017 0.951056
    outer loop
      vertex -38 20.4808 -14.5749
      vertex -37 20.4808 -14.5749
      vertex -38 22.3 -13.9838
    endloop
  endfacet
  facet normal -1.76973e-16 0.382684 -0.923879
    outer loop
      vertex -30 18.2406 -8.24065
      vertex -37 18.2406 -8.24065
      vertex -30 20 -7.5119
    endloop
  endfacet
  facet normal -1.76973e-16 0.382684 -0.923879
    outer loop
      vertex -30 20 -7.5119
      vertex -37 18.2406 -8.24065
      vertex -37 20 -7.5119
    endloop
  endfacet
  facet normal -7.027e-18 -0.382684 -0.923879
    outer loop
      vertex -30 20 -7.5119
      vertex -37 20 -7.5119
      vertex -30 21.7594 -8.24065
    endloop
  endfacet
  facet normal -7.027e-18 -0.382684 -0.923879
    outer loop
      vertex -30 21.7594 -8.24065
      vertex -37 20 -7.5119
      vertex -37 21.7594 -8.24065
    endloop
  endfacet
  facet normal -2.4325e-16 0.923879 -0.382684
    outer loop
      vertex -30 18.2406 -8.24065
      vertex -30 17.5119 -10
      vertex -37 18.2406 -8.24065
    endloop
  endfacet
  facet normal -2.4325e-16 0.923879 -0.382684
    outer loop
      vertex -37 18.2406 -8.24065
      vertex -30 17.5119 -10
      vertex -37 17.5119 -10
    endloop
  endfacet
  facet normal -1.67035e-16 0.923879 0.382684
    outer loop
      vertex -30 17.5119 -10
      vertex -30 18.2406 -11.7594
      vertex -37 17.5119 -10
    endloop
  endfacet
  facet normal -1.67035e-16 0.923879 0.382684
    outer loop
      vertex -37 17.5119 -10
      vertex -30 18.2406 -11.7594
      vertex -37 18.2406 -11.7594
    endloop
  endfacet
  facet normal 7.027e-18 0.382684 0.923879
    outer loop
      vertex -37 18.2406 -11.7594
      vertex -30 18.2406 -11.7594
      vertex -30 20 -12.4881
    endloop
  endfacet
  facet normal 7.027e-18 0.382684 0.923879
    outer loop
      vertex -37 20 -12.4881
      vertex -37 18.2406 -11.7594
      vertex -30 20 -12.4881
    endloop
  endfacet
  facet normal 1.76973e-16 -0.382684 0.923879
    outer loop
      vertex -37 20 -12.4881
      vertex -30 20 -12.4881
      vertex -30 21.7594 -11.7594
    endloop
  endfacet
  facet normal 1.76973e-16 -0.382684 0.923879
    outer loop
      vertex -37 21.7594 -11.7594
      vertex -37 20 -12.4881
      vertex -30 21.7594 -11.7594
    endloop
  endfacet
  facet normal 2.4325e-16 -0.923879 0.382684
    outer loop
      vertex -30 21.7594 -11.7594
      vertex -30 22.4881 -10
      vertex -37 22.4881 -10
    endloop
  endfacet
  facet normal 2.4325e-16 -0.923879 0.382684
    outer loop
      vertex -37 21.7594 -11.7594
      vertex -30 21.7594 -11.7594
      vertex -37 22.4881 -10
    endloop
  endfacet
  facet normal 1.67035e-16 -0.923879 -0.382684
    outer loop
      vertex -30 22.4881 -10
      vertex -30 21.7594 -8.24065
      vertex -37 21.7594 -8.24065
    endloop
  endfacet
  facet normal 1.67035e-16 -0.923879 -0.382684
    outer loop
      vertex -37 22.4881 -10
      vertex -30 22.4881 -10
      vertex -37 21.7594 -8.24065
    endloop
  endfacet
  facet normal 4.03258e-16 -0.382684 -0.923879
    outer loop
      vertex -3 21.7594 -8.24065
      vertex -3 20 -7.5119
      vertex -10 21.7594 -8.24065
    endloop
  endfacet
  facet normal 4.03258e-16 -0.382684 -0.923879
    outer loop
      vertex -10 21.7594 -8.24065
      vertex -3 20 -7.5119
      vertex -10 20 -7.5119
    endloop
  endfacet
  facet normal 2.33312e-16 0.382684 -0.923879
    outer loop
      vertex -3 18.2406 -8.24065
      vertex -10 18.2406 -8.24065
      vertex -3 20 -7.5119
    endloop
  endfacet
  facet normal 2.33312e-16 0.382684 -0.923879
    outer loop
      vertex -3 20 -7.5119
      vertex -10 18.2406 -8.24065
      vertex -10 20 -7.5119
    endloop
  endfacet
  facet normal 3.36981e-16 -0.923879 -0.382684
    outer loop
      vertex -10 22.4881 -10
      vertex -3 22.4881 -10
      vertex -3 21.7594 -8.24065
    endloop
  endfacet
  facet normal 3.36981e-16 -0.923879 -0.382684
    outer loop
      vertex -10 21.7594 -8.24065
      vertex -10 22.4881 -10
      vertex -3 21.7594 -8.24065
    endloop
  endfacet
  facet normal 7.33044e-17 -0.923879 0.382684
    outer loop
      vertex -10 21.7594 -11.7594
      vertex -3 21.7594 -11.7594
      vertex -3 22.4881 -10
    endloop
  endfacet
  facet normal 7.33044e-17 -0.923879 0.382684
    outer loop
      vertex -10 22.4881 -10
      vertex -10 21.7594 -11.7594
      vertex -3 22.4881 -10
    endloop
  endfacet
  facet normal -2.33312e-16 -0.382684 0.923879
    outer loop
      vertex -10 20 -12.4881
      vertex -3 20 -12.4881
      vertex -3 21.7594 -11.7594
    endloop
  endfacet
  facet normal -2.33312e-16 -0.382684 0.923879
    outer loop
      vertex -10 21.7594 -11.7594
      vertex -10 20 -12.4881
      vertex -3 21.7594 -11.7594
    endloop
  endfacet
  facet normal -4.03258e-16 0.382684 0.923879
    outer loop
      vertex -3 18.2406 -11.7594
      vertex -3 20 -12.4881
      vertex -10 20 -12.4881
    endloop
  endfacet
  facet normal -4.03258e-16 0.382684 0.923879
    outer loop
      vertex -10 18.2406 -11.7594
      vertex -3 18.2406 -11.7594
      vertex -10 20 -12.4881
    endloop
  endfacet
  facet normal -3.36981e-16 0.923879 0.382684
    outer loop
      vertex -3 18.2406 -11.7594
      vertex -10 18.2406 -11.7594
      vertex -3 17.5119 -10
    endloop
  endfacet
  facet normal -3.36981e-16 0.923879 0.382684
    outer loop
      vertex -3 17.5119 -10
      vertex -10 18.2406 -11.7594
      vertex -10 17.5119 -10
    endloop
  endfacet
  facet normal -7.33044e-17 0.923879 -0.382684
    outer loop
      vertex -3 17.5119 -10
      vertex -10 17.5119 -10
      vertex -3 18.2406 -8.24065
    endloop
  endfacet
  facet normal -7.33044e-17 0.923879 -0.382684
    outer loop
      vertex -3 18.2406 -8.24065
      vertex -10 17.5119 -10
      vertex -10 18.2406 -8.24065
    endloop
  endfacet
  facet normal 1 0 2.22045e-16
    outer loop
      vertex -1.17169e-15 17.1443 -3.72316
      vertex -9.0232e-16 15.5857 -4.93631
      vertex -5.35166e-16 14.5054 -6.58983
    endloop
  endfacet
  facet normal 1 0 2.22045e-16
    outer loop
      vertex 3.27052e-16 14.1836 -10.4729
      vertex -1.17169e-15 17.1443 -3.72316
      vertex -1.10018e-16 14.0205 -8.50452
    endloop
  endfacet
  facet normal 1 0 2.22045e-16
    outer loop
      vertex -1.10018e-16 14.0205 -8.50452
      vertex -1.17169e-15 17.1443 -3.72316
      vertex -5.35166e-16 14.5054 -6.58983
    endloop
  endfacet
  facet normal 1 0 2.22045e-16
    outer loop
      vertex 0 15.5198 -9
      vertex -1.17169e-15 17.1443 -3.72316
      vertex 3.27052e-16 14.1836 -10.4729
    endloop
  endfacet
  facet normal 1 0 2.22045e-16
    outer loop
      vertex -6.62537e-16 17.6999 -6.0162
      vertex -7.93787e-16 19.5192 -5.4251
      vertex -1.17169e-15 17.1443 -3.72316
    endloop
  endfacet
  facet normal 1 0 2.22045e-16
    outer loop
      vertex -9.0232e-16 24.4143 -4.93631
      vertex -1.17169e-15 17.1443 -3.72316
      vertex -5.35166e-16 25.4946 -6.58983
    endloop
  endfacet
  facet normal 1 0 2.22045e-16
    outer loop
      vertex -1.17169e-15 22.8557 -3.72316
      vertex -1.17169e-15 17.1443 -3.72316
      vertex -9.0232e-16 24.4143 -4.93631
    endloop
  endfacet
  facet normal 1 0 2.22045e-16
    outer loop
      vertex -1.3141e-15 20.9876 -3.08183
      vertex -1.17169e-15 17.1443 -3.72316
      vertex -1.17169e-15 22.8557 -3.72316
    endloop
  endfacet
  facet normal 1 0 2.22045e-16
    outer loop
      vertex -1.3141e-15 19.0124 -3.08183
      vertex -1.17169e-15 17.1443 -3.72316
      vertex -1.3141e-15 20.9876 -3.08183
    endloop
  endfacet
  facet normal 1 0 2.22045e-16
    outer loop
      vertex -3.78335e-16 16.2784 -7.29613
      vertex -6.62537e-16 17.6999 -6.0162
      vertex -1.17169e-15 17.1443 -3.72316
    endloop
  endfacet
  facet normal 1 0 2.22045e-16
    outer loop
      vertex -5.35166e-16 25.4946 -6.58983
      vertex -1.17169e-15 17.1443 -3.72316
      vertex -7.49391e-16 21.4215 -5.62504
    endloop
  endfacet
  facet normal 1 0 2.22045e-16
    outer loop
      vertex -5.35166e-16 25.4946 -6.58983
      vertex -5.37024e-16 23.0781 -6.58146
      vertex -1.10018e-16 25.9795 -8.50452
    endloop
  endfacet
  facet normal 1 0 2.22045e-16
    outer loop
      vertex -5.35166e-16 25.4946 -6.58983
      vertex -7.49391e-16 21.4215 -5.62504
      vertex -5.37024e-16 23.0781 -6.58146
    endloop
  endfacet
  facet normal 1 0 2.22045e-16
    outer loop
      vertex -1.10018e-16 25.9795 -8.50452
      vertex -1.93407e-16 24.2024 -8.12897
      vertex 3.27052e-16 25.8164 -10.4729
    endloop
  endfacet
  facet normal 1 0 2.22045e-16
    outer loop
      vertex -5.37024e-16 23.0781 -6.58146
      vertex -1.93407e-16 24.2024 -8.12897
      vertex -1.10018e-16 25.9795 -8.50452
    endloop
  endfacet
  facet normal 1 0 2.22045e-16
    outer loop
      vertex -1.93407e-16 24.2024 -8.12897
      vertex 0 24.3875 -9
      vertex 3.27052e-16 25.8164 -10.4729
    endloop
  endfacet
  facet normal 1 0 2.22045e-16
    outer loop
      vertex 7.28681e-16 14.977 -12.2817
      vertex 0 15.5198 -9
      vertex 3.27052e-16 14.1836 -10.4729
    endloop
  endfacet
  facet normal 1 0 2.22045e-16
    outer loop
      vertex 0 15.5198 -9
      vertex -3.78335e-16 16.2784 -7.29613
      vertex -1.17169e-15 17.1443 -3.72316
    endloop
  endfacet
  facet normal 1 0 2.22045e-16
    outer loop
      vertex -7.93787e-16 19.5192 -5.4251
      vertex -7.49391e-16 21.4215 -5.62504
      vertex -1.17169e-15 17.1443 -3.72316
    endloop
  endfacet
  facet normal 1 0 2.22045e-16
    outer loop
      vertex 0 24.3875 -9
      vertex 7.28681e-16 25.023 -12.2817
      vertex 3.27052e-16 25.8164 -10.4729
    endloop
  endfacet
  facet normal 1 0 2.22045e-16
    outer loop
      vertex 0 24.3875 -9
      vertex 1.05135e-15 23.6853 -13.7348
      vertex 7.28681e-16 25.023 -12.2817
    endloop
  endfacet
  facet normal 1 0 2.22045e-16
    outer loop
      vertex 0 24.3875 -9
      vertex 1.26008e-15 21.9482 -14.6749
      vertex 1.05135e-15 23.6853 -13.7348
    endloop
  endfacet
  facet normal 1 0 2.22045e-16
    outer loop
      vertex 0 24.3875 -9
      vertex 1.33227e-15 20 -15
      vertex 1.26008e-15 21.9482 -14.6749
    endloop
  endfacet
  facet normal 1 0 2.22045e-16
    outer loop
      vertex 0 24.3875 -9
      vertex 1.26008e-15 18.0518 -14.6749
      vertex 1.33227e-15 20 -15
    endloop
  endfacet
  facet normal 1 0 2.22045e-16
    outer loop
      vertex 0 24.3875 -9
      vertex 1.05135e-15 16.3147 -13.7348
      vertex 1.26008e-15 18.0518 -14.6749
    endloop
  endfacet
  facet normal 1 0 2.22045e-16
    outer loop
      vertex 0 24.3875 -9
      vertex 7.28681e-16 14.977 -12.2817
      vertex 1.05135e-15 16.3147 -13.7348
    endloop
  endfacet
  facet normal 1 0 2.22045e-16
    outer loop
      vertex 0 24.3875 -9
      vertex 0 15.5198 -9
      vertex 7.28681e-16 14.977 -12.2817
    endloop
  endfacet
  facet normal -1 -2.22045e-16 9.95799e-17
    outer loop
      vertex -37 20.4808 -14.5749
      vertex -37 18.5785 -14.375
      vertex -37 22.3 -13.9838
    endloop
  endfacet
  facet normal -1 -2.22045e-16 9.95799e-17
    outer loop
      vertex -37 22.3 -13.9838
      vertex -37 18.5785 -14.375
      vertex -37 16.9219 -13.4185
    endloop
  endfacet
  facet normal -1 -2.22045e-16 9.95799e-17
    outer loop
      vertex -37 22.3 -13.9838
      vertex -37 16.9219 -13.4185
      vertex -37 15.7976 -11.871
    endloop
  endfacet
  facet normal -1 -2.22045e-16 9.95799e-17
    outer loop
      vertex -37 18.2406 -11.7594
      vertex -37 15.7976 -11.871
      vertex -37 15.3999 -10
    endloop
  endfacet
  facet normal -1 -2.22045e-16 9.95799e-17
    outer loop
      vertex -37 17.5119 -10
      vertex -37 15.3999 -10
      vertex -37 15.7976 -8.12897
    endloop
  endfacet
  facet normal -1 -2.22045e-16 9.95799e-17
    outer loop
      vertex -37 20 -12.4881
      vertex -37 22.3 -13.9838
      vertex -37 18.2406 -11.7594
    endloop
  endfacet
  facet normal -1 -2.22045e-16 9.95799e-17
    outer loop
      vertex -37 18.2406 -8.24065
      vertex -37 16.9219 -6.58146
      vertex -37 18.5785 -5.62505
    endloop
  endfacet
  facet normal -1 -2.22045e-16 9.95799e-17
    outer loop
      vertex -37 20 -7.5119
      vertex -37 18.5785 -5.62505
      vertex -37 20.4808 -5.4251
    endloop
  endfacet
  facet normal -1 -2.22045e-16 9.95799e-17
    outer loop
      vertex -37 21.7594 -8.24065
      vertex -37 20.4808 -5.4251
      vertex -37 22.3 -6.0162
    endloop
  endfacet
  facet normal -1 -2.22045e-16 9.95799e-17
    outer loop
      vertex -37 22.4881 -10
      vertex -37 22.3 -6.0162
      vertex -37 23.7216 -7.29613
    endloop
  endfacet
  facet normal -1 -2.22045e-16 9.95799e-17
    outer loop
      vertex -37 22.3 -13.9838
      vertex -37 23.7216 -7.29613
      vertex -37 24.4996 -9.04359
    endloop
  endfacet
  facet normal -1 -2.22045e-16 9.95799e-17
    outer loop
      vertex -37 22.3 -13.9838
      vertex -37 24.4996 -9.04359
      vertex -37 24.4996 -10.9564
    endloop
  endfacet
  facet normal -1 -2.22045e-16 9.95799e-17
    outer loop
      vertex -37 22.3 -13.9838
      vertex -37 24.4996 -10.9564
      vertex -37 23.7216 -12.7039
    endloop
  endfacet
  facet normal -1 -2.22045e-16 9.95799e-17
    outer loop
      vertex -37 21.7594 -8.24065
      vertex -37 22.3 -6.0162
      vertex -37 22.4881 -10
    endloop
  endfacet
  facet normal -1 -2.22045e-16 9.95799e-17
    outer loop
      vertex -37 22.3 -13.9838
      vertex -37 22.4881 -10
      vertex -37 23.7216 -7.29613
    endloop
  endfacet
  facet normal -1 -2.22045e-16 9.95799e-17
    outer loop
      vertex -37 17.5119 -10
      vertex -37 16.9219 -6.58146
      vertex -37 18.2406 -8.24065
    endloop
  endfacet
  facet normal -1 -2.22045e-16 9.95799e-17
    outer loop
      vertex -37 18.2406 -8.24065
      vertex -37 18.5785 -5.62505
      vertex -37 20 -7.5119
    endloop
  endfacet
  facet normal -1 -2.22045e-16 9.95799e-17
    outer loop
      vertex -37 17.5119 -10
      vertex -37 15.7976 -8.12897
      vertex -37 16.9219 -6.58146
    endloop
  endfacet
  facet normal -1 -2.22045e-16 9.95799e-17
    outer loop
      vertex -37 18.2406 -11.7594
      vertex -37 15.3999 -10
      vertex -37 17.5119 -10
    endloop
  endfacet
  facet normal -1 -2.22045e-16 9.95799e-17
    outer loop
      vertex -37 22.3 -13.9838
      vertex -37 15.7976 -11.871
      vertex -37 18.2406 -11.7594
    endloop
  endfacet
  facet normal -1 -2.22045e-16 9.95799e-17
    outer loop
      vertex -37 21.7594 -11.7594
      vertex -37 22.3 -13.9838
      vertex -37 20 -12.4881
    endloop
  endfacet
  facet normal -1 -2.22045e-16 9.95799e-17
    outer loop
      vertex -37 22.4881 -10
      vertex -37 22.3 -13.9838
      vertex -37 21.7594 -11.7594
    endloop
  endfacet
  facet normal -1 -2.22045e-16 9.95799e-17
    outer loop
      vertex -37 20 -7.5119
      vertex -37 20.4808 -5.4251
      vertex -37 21.7594 -8.24065
    endloop
  endfacet
  facet normal 1 2.22045e-16 3.44509e-16
    outer loop
      vertex -3 21.4215 -5.62505
      vertex -3 19.5192 -5.4251
      vertex -3 17.6999 -6.0162
    endloop
  endfacet
  facet normal 1 2.22045e-16 3.44509e-16
    outer loop
      vertex -3 15.5004 -9.04359
      vertex -3 21.4215 -5.62505
      vertex -3 16.2784 -7.29613
    endloop
  endfacet
  facet normal 1 2.22045e-16 3.44509e-16
    outer loop
      vertex -3 16.2784 -7.29613
      vertex -3 21.4215 -5.62505
      vertex -3 17.6999 -6.0162
    endloop
  endfacet
  facet normal 1 2.22045e-16 3.44509e-16
    outer loop
      vertex -3 18.2406 -8.24065
      vertex -3 21.4215 -5.62505
      vertex -3 15.5004 -9.04359
    endloop
  endfacet
  facet normal 1 2.22045e-16 3.44509e-16
    outer loop
      vertex -3 18.2406 -8.24065
      vertex -3 20 -7.5119
      vertex -3 21.4215 -5.62505
    endloop
  endfacet
  facet normal 1 2.22045e-16 3.44509e-16
    outer loop
      vertex -3 18.2406 -11.7594
      vertex -3 17.5119 -10
      vertex -3 16.2784 -12.7039
    endloop
  endfacet
  facet normal 1 2.22045e-16 3.44509e-16
    outer loop
      vertex -3 21.7594 -11.7594
      vertex -3 20 -12.4881
      vertex -3 21.4215 -14.375
    endloop
  endfacet
  facet normal 1 2.22045e-16 3.44509e-16
    outer loop
      vertex -3 24.6001 -10
      vertex -3 21.4215 -5.62505
      vertex -3 24.2024 -11.871
    endloop
  endfacet
  facet normal 1 2.22045e-16 3.44509e-16
    outer loop
      vertex -3 24.2024 -8.12897
      vertex -3 21.4215 -5.62505
      vertex -3 24.6001 -10
    endloop
  endfacet
  facet normal 1 2.22045e-16 3.44509e-16
    outer loop
      vertex -3 23.0781 -6.58146
      vertex -3 21.4215 -5.62505
      vertex -3 24.2024 -8.12897
    endloop
  endfacet
  facet normal 1 2.22045e-16 3.44509e-16
    outer loop
      vertex -3 20 -12.4881
      vertex -3 18.2406 -11.7594
      vertex -3 17.6999 -13.9838
    endloop
  endfacet
  facet normal 1 2.22045e-16 3.44509e-16
    outer loop
      vertex -3 22.4881 -10
      vertex -3 21.7594 -11.7594
      vertex -3 23.0781 -13.4185
    endloop
  endfacet
  facet normal 1 2.22045e-16 3.44509e-16
    outer loop
      vertex -3 24.2024 -11.871
      vertex -3 22.4881 -10
      vertex -3 23.0781 -13.4185
    endloop
  endfacet
  facet normal 1 2.22045e-16 3.44509e-16
    outer loop
      vertex -3 24.2024 -11.871
      vertex -3 21.4215 -5.62505
      vertex -3 22.4881 -10
    endloop
  endfacet
  facet normal 1 2.22045e-16 3.44509e-16
    outer loop
      vertex -3 23.0781 -13.4185
      vertex -3 21.7594 -11.7594
      vertex -3 21.4215 -14.375
    endloop
  endfacet
  facet normal 1 2.22045e-16 3.44509e-16
    outer loop
      vertex -3 21.4215 -14.375
      vertex -3 20 -12.4881
      vertex -3 19.5192 -14.5749
    endloop
  endfacet
  facet normal 1 2.22045e-16 3.44509e-16
    outer loop
      vertex -3 21.7594 -8.24065
      vertex -3 22.4881 -10
      vertex -3 21.4215 -5.62505
    endloop
  endfacet
  facet normal 1 2.22045e-16 3.44509e-16
    outer loop
      vertex -3 17.6999 -13.9838
      vertex -3 18.2406 -11.7594
      vertex -3 16.2784 -12.7039
    endloop
  endfacet
  facet normal 1 2.22045e-16 3.44509e-16
    outer loop
      vertex -3 16.2784 -12.7039
      vertex -3 17.5119 -10
      vertex -3 15.5004 -10.9564
    endloop
  endfacet
  facet normal 1 2.22045e-16 3.44509e-16
    outer loop
      vertex -3 15.5004 -10.9564
      vertex -3 18.2406 -8.24065
      vertex -3 15.5004 -9.04359
    endloop
  endfacet
  facet normal 1 2.22045e-16 3.44509e-16
    outer loop
      vertex -3 20 -12.4881
      vertex -3 17.6999 -13.9838
      vertex -3 19.5192 -14.5749
    endloop
  endfacet
  facet normal 1 2.22045e-16 3.44509e-16
    outer loop
      vertex -3 17.5119 -10
      vertex -3 18.2406 -8.24065
      vertex -3 15.5004 -10.9564
    endloop
  endfacet
  facet normal 1 2.22045e-16 3.44509e-16
    outer loop
      vertex -3 20 -7.5119
      vertex -3 21.7594 -8.24065
      vertex -3 21.4215 -5.62505
    endloop
  endfacet
  facet normal 3.65832e-16 -0.104528 -0.994522
    outer loop
      vertex -7.93787e-16 19.5192 -5.4251
      vertex -3 19.5192 -5.4251
      vertex -7.49391e-16 21.4215 -5.62504
    endloop
  endfacet
  facet normal 3.65832e-16 -0.104528 -0.994522
    outer loop
      vertex -7.49391e-16 21.4215 -5.62504
      vertex -3 19.5192 -5.4251
      vertex -3 21.4215 -5.62505
    endloop
  endfacet
  facet normal 4.09376e-16 -0.5 -0.866026
    outer loop
      vertex -7.49391e-16 21.4215 -5.62504
      vertex -3 21.4215 -5.62505
      vertex -5.37024e-16 23.0781 -6.58146
    endloop
  endfacet
  facet normal 4.09376e-16 -0.5 -0.866026
    outer loop
      vertex -5.37024e-16 23.0781 -6.58146
      vertex -3 21.4215 -5.62505
      vertex -3 23.0781 -6.58146
    endloop
  endfacet
  facet normal 2.59032e-16 0.309017 -0.951056
    outer loop
      vertex -6.62537e-16 17.6999 -6.0162
      vertex -3 17.6999 -6.0162
      vertex -7.93787e-16 19.5192 -5.4251
    endloop
  endfacet
  facet normal 2.59032e-16 0.309017 -0.951056
    outer loop
      vertex -7.93787e-16 19.5192 -5.4251
      vertex -3 17.6999 -6.0162
      vertex -3 19.5192 -5.4251
    endloop
  endfacet
  facet normal 1.07444e-16 0.66913 -0.743145
    outer loop
      vertex -3.78335e-16 16.2784 -7.29613
      vertex -3 16.2784 -7.29613
      vertex -6.62537e-16 17.6999 -6.0162
    endloop
  endfacet
  facet normal 1.07444e-16 0.66913 -0.743145
    outer loop
      vertex -6.62537e-16 17.6999 -6.0162
      vertex -3 16.2784 -7.29613
      vertex -3 17.6999 -6.0162
    endloop
  endfacet
  facet normal -6.27232e-17 0.913545 -0.406737
    outer loop
      vertex 0 15.5198 -9
      vertex 0 15.5004 -9.04358
      vertex -3.78335e-16 16.2784 -7.29613
    endloop
  endfacet
  facet normal -6.27232e-17 0.913545 -0.406737
    outer loop
      vertex -3.78335e-16 16.2784 -7.29613
      vertex 0 15.5004 -9.04358
      vertex -3 15.5004 -9.04359
    endloop
  endfacet
  facet normal -6.27232e-17 0.913545 -0.406737
    outer loop
      vertex -3.78335e-16 16.2784 -7.29613
      vertex -3 15.5004 -9.04359
      vertex -3 16.2784 -7.29613
    endloop
  endfacet
  facet normal -1 0 0
    outer loop
      vertex 0 15.5004 -10.9564
      vertex 0 15.5004 -9.04358
      vertex 0 16.2784 -12.7039
    endloop
  endfacet
  facet normal -1 0 0
    outer loop
      vertex 0 16.2784 -12.7039
      vertex 0 15.5004 -9.04358
      vertex 0 15.5198 -9
    endloop
  endfacet
  facet normal -1 0 0
    outer loop
      vertex 0 16.2784 -12.7039
      vertex 0 15.5198 -9
      vertex 0 24.3875 -9
    endloop
  endfacet
  facet normal -1 0 0
    outer loop
      vertex 0 16.2784 -12.7039
      vertex 0 24.3875 -9
      vertex 0 24.6001 -10
    endloop
  endfacet
  facet normal -1 0 0
    outer loop
      vertex 0 16.2784 -12.7039
      vertex 0 24.6001 -10
      vertex 0 24.2024 -11.871
    endloop
  endfacet
  facet normal -1 0 0
    outer loop
      vertex 0 16.2784 -12.7039
      vertex 0 24.2024 -11.871
      vertex 0 23.0781 -13.4185
    endloop
  endfacet
  facet normal -1 0 0
    outer loop
      vertex 0 16.2784 -12.7039
      vertex 0 23.0781 -13.4185
      vertex 0 21.4215 -14.375
    endloop
  endfacet
  facet normal -1 0 0
    outer loop
      vertex 0 16.2784 -12.7039
      vertex 0 21.4215 -14.375
      vertex 0 19.5192 -14.5749
    endloop
  endfacet
  facet normal -1 0 0
    outer loop
      vertex 0 16.2784 -12.7039
      vertex 0 19.5192 -14.5749
      vertex 0 17.6999 -13.9838
    endloop
  endfacet
  facet normal 2.8882e-16 -0.978148 -0.207912
    outer loop
      vertex -3 24.6001 -10
      vertex 0 24.6001 -10
      vertex 0 24.3875 -9
    endloop
  endfacet
  facet normal 2.8882e-16 -0.978148 -0.207912
    outer loop
      vertex -3 24.2024 -8.12897
      vertex -3 24.6001 -10
      vertex -1.93407e-16 24.2024 -8.12897
    endloop
  endfacet
  facet normal 2.8882e-16 -0.978148 -0.207912
    outer loop
      vertex -1.93407e-16 24.2024 -8.12897
      vertex -3 24.6001 -10
      vertex 0 24.3875 -9
    endloop
  endfacet
  facet normal 3.82135e-16 -0.809017 -0.587785
    outer loop
      vertex -3 24.2024 -8.12897
      vertex -1.93407e-16 24.2024 -8.12897
      vertex -5.37024e-16 23.0781 -6.58146
    endloop
  endfacet
  facet normal 3.82135e-16 -0.809017 -0.587785
    outer loop
      vertex -3 23.0781 -6.58146
      vertex -3 24.2024 -8.12897
      vertex -5.37024e-16 23.0781 -6.58146
    endloop
  endfacet
  facet normal 1.45565e-16 -0.978148 0.207912
    outer loop
      vertex -3 24.2024 -11.871
      vertex 0 24.2024 -11.871
      vertex 0 24.6001 -10
    endloop
  endfacet
  facet normal 1.45565e-16 -0.978148 0.207912
    outer loop
      vertex -3 24.6001 -10
      vertex -3 24.2024 -11.871
      vertex 0 24.6001 -10
    endloop
  endfacet
  facet normal -2.28594e-17 -0.809017 0.587785
    outer loop
      vertex -3 23.0781 -13.4185
      vertex 0 23.0781 -13.4185
      vertex 0 24.2024 -11.871
    endloop
  endfacet
  facet normal -2.28594e-17 -0.809017 0.587785
    outer loop
      vertex -3 24.2024 -11.871
      vertex -3 23.0781 -13.4185
      vertex 0 24.2024 -11.871
    endloop
  endfacet
  facet normal -1.87332e-16 -0.5 0.866026
    outer loop
      vertex -3 21.4215 -14.375
      vertex 0 21.4215 -14.375
      vertex 0 23.0781 -13.4185
    endloop
  endfacet
  facet normal -1.87332e-16 -0.5 0.866026
    outer loop
      vertex -3 23.0781 -13.4185
      vertex -3 21.4215 -14.375
      vertex 0 23.0781 -13.4185
    endloop
  endfacet
  facet normal -3.19412e-16 -0.104528 0.994522
    outer loop
      vertex -3 19.5192 -14.5749
      vertex 0 19.5192 -14.5749
      vertex 0 21.4215 -14.375
    endloop
  endfacet
  facet normal -3.19412e-16 -0.104528 0.994522
    outer loop
      vertex -3 21.4215 -14.375
      vertex -3 19.5192 -14.5749
      vertex 0 21.4215 -14.375
    endloop
  endfacet
  facet normal -3.96263e-16 0.309017 0.951056
    outer loop
      vertex -3 17.6999 -13.9838
      vertex 0 17.6999 -13.9838
      vertex 0 19.5192 -14.5749
    endloop
  endfacet
  facet normal -3.96263e-16 0.309017 0.951056
    outer loop
      vertex -3 19.5192 -14.5749
      vertex -3 17.6999 -13.9838
      vertex 0 19.5192 -14.5749
    endloop
  endfacet
  facet normal -4.04597e-16 0.66913 0.743145
    outer loop
      vertex 0 16.2784 -12.7039
      vertex 0 17.6999 -13.9838
      vertex -3 17.6999 -13.9838
    endloop
  endfacet
  facet normal -4.04597e-16 0.66913 0.743145
    outer loop
      vertex -3 16.2784 -12.7039
      vertex 0 16.2784 -12.7039
      vertex -3 17.6999 -13.9838
    endloop
  endfacet
  facet normal -3.42972e-16 0.913545 0.406737
    outer loop
      vertex 0 16.2784 -12.7039
      vertex -3 16.2784 -12.7039
      vertex 0 15.5004 -10.9564
    endloop
  endfacet
  facet normal -3.42972e-16 0.913545 0.406737
    outer loop
      vertex 0 15.5004 -10.9564
      vertex -3 16.2784 -12.7039
      vertex -3 15.5004 -10.9564
    endloop
  endfacet
  facet normal -2.22045e-16 1 -7.64964e-32
    outer loop
      vertex 0 15.5004 -10.9564
      vertex -3 15.5004 -10.9564
      vertex 0 15.5004 -9.04358
    endloop
  endfacet
  facet normal -2.22045e-16 1 -7.64964e-32
    outer loop
      vertex 0 15.5004 -9.04358
      vertex -3 15.5004 -10.9564
      vertex -3 15.5004 -9.04359
    endloop
  endfacet
endsolid OpenSCAD_Model
