solid OpenSCAD_Model
  facet normal -1 6.01616e-49 -1.22465e-16
    outer loop
      vertex 8 5 1
      vertex 8 5 -20
      vertex 8 -15 1
    endloop
  endfacet
  facet normal -1 6.01616e-49 -1.22465e-16
    outer loop
      vertex 8 -15 1
      vertex 8 5 -20
      vertex 8 -15 -20
    endloop
  endfacet
  facet normal -1.49976e-32 1 1.22465e-16
    outer loop
      vertex 8 5 1
      vertex 60 5 1
      vertex 8 5 -20
    endloop
  endfacet
  facet normal -1.49976e-32 1 1.22465e-16
    outer loop
      vertex 8 5 -20
      vertex 60 5 1
      vertex 60 5 -20
    endloop
  endfacet
  facet normal -1.22465e-16 -1.22465e-16 1
    outer loop
      vertex 13.3999 -5 1
      vertex 8 5 1
      vertex 8 -15 1
    endloop
  endfacet
  facet normal -1.22465e-16 -1.22465e-16 1
    outer loop
      vertex 13.7976 -6.87103 1
      vertex 13.3999 -5 1
      vertex 8 -15 1
    endloop
  endfacet
  facet normal -1.22465e-16 -1.22465e-16 1
    outer loop
      vertex 13.7976 -3.12897 1
      vertex 8 5 1
      vertex 13.3999 -5 1
    endloop
  endfacet
  facet normal -1.22465e-16 -1.22465e-16 1
    outer loop
      vertex 14.9219 -1.58146 1
      vertex 8 5 1
      vertex 13.7976 -3.12897 1
    endloop
  endfacet
  facet normal -1.22465e-16 -1.22465e-16 1
    outer loop
      vertex 16.5785 -0.625045 1
      vertex 8 5 1
      vertex 14.9219 -1.58146 1
    endloop
  endfacet
  facet normal -1.22465e-16 -1.22465e-16 1
    outer loop
      vertex 60 5 1
      vertex 8 5 1
      vertex 16.5785 -0.625045 1
    endloop
  endfacet
  facet normal -1.22465e-16 -1.22465e-16 1
    outer loop
      vertex 20.3 -1.0162 1
      vertex 21.7216 -2.29613 1
      vertex 60 5 1
    endloop
  endfacet
  facet normal -1.22465e-16 -1.22465e-16 1
    outer loop
      vertex 60 5 1
      vertex 16.5785 -0.625045 1
      vertex 18.4808 -0.4251 1
    endloop
  endfacet
  facet normal -1.22465e-16 -1.22465e-16 1
    outer loop
      vertex 28.7976 -6.87103 1
      vertex 21.7216 -7.70387 1
      vertex 20.3 -8.9838 1
    endloop
  endfacet
  facet normal -1.22465e-16 -1.22465e-16 1
    outer loop
      vertex 16.5785 -9.37495 1
      vertex 14.9219 -8.41854 1
      vertex 8 -15 1
    endloop
  endfacet
  facet normal -1.22465e-16 -1.22465e-16 1
    outer loop
      vertex 28.7976 -3.12897 1
      vertex 22.4996 -4.04358 1
      vertex 22.4996 -5.95641 1
    endloop
  endfacet
  facet normal -1.22465e-16 -1.22465e-16 1
    outer loop
      vertex 28.7976 -6.87103 1
      vertex 28.3999 -5 1
      vertex 21.7216 -7.70387 1
    endloop
  endfacet
  facet normal -1.22465e-16 -1.22465e-16 1
    outer loop
      vertex 28.3999 -5 1
      vertex 22.4996 -5.95641 1
      vertex 21.7216 -7.70387 1
    endloop
  endfacet
  facet normal -1.22465e-16 -1.22465e-16 1
    outer loop
      vertex 28.7976 -6.87103 1
      vertex 20.3 -8.9838 1
      vertex 8 -15 1
    endloop
  endfacet
  facet normal -1.22465e-16 -1.22465e-16 1
    outer loop
      vertex 20.3 -8.9838 1
      vertex 18.4808 -9.5749 1
      vertex 8 -15 1
    endloop
  endfacet
  facet normal -1.22465e-16 -1.22465e-16 1
    outer loop
      vertex 29.9219 -8.41854 1
      vertex 28.7976 -6.87103 1
      vertex 8 -15 1
    endloop
  endfacet
  facet normal -1.22465e-16 -1.22465e-16 1
    outer loop
      vertex 14.9219 -8.41854 1
      vertex 13.7976 -6.87103 1
      vertex 8 -15 1
    endloop
  endfacet
  facet normal -1.22465e-16 -1.22465e-16 1
    outer loop
      vertex 28.7976 -3.12897 1
      vertex 29.9219 -1.58146 1
      vertex 22.4996 -4.04358 1
    endloop
  endfacet
  facet normal -1.22465e-16 -1.22465e-16 1
    outer loop
      vertex 36.7216 -2.29613 1
      vertex 37.4996 -4.04358 1
      vertex 60 5 1
    endloop
  endfacet
  facet normal -1.22465e-16 -1.22465e-16 1
    outer loop
      vertex 60 5 1
      vertex 21.7216 -2.29613 1
      vertex 31.5785 -0.625045 1
    endloop
  endfacet
  facet normal -1.22465e-16 -1.22465e-16 1
    outer loop
      vertex 18.4808 -9.5749 1
      vertex 16.5785 -9.37495 1
      vertex 8 -15 1
    endloop
  endfacet
  facet normal -1.22465e-16 -1.22465e-16 1
    outer loop
      vertex 60 5 1
      vertex 31.5785 -0.625045 1
      vertex 33.4808 -0.4251 1
    endloop
  endfacet
  facet normal -1.22465e-16 -1.22465e-16 1
    outer loop
      vertex 29.9219 -1.58146 1
      vertex 31.5785 -0.625045 1
      vertex 21.7216 -2.29613 1
    endloop
  endfacet
  facet normal -1.22465e-16 -1.22465e-16 1
    outer loop
      vertex 50.3 -8.9838 1
      vertex 48.4808 -9.5749 1
      vertex 60 -15 1
    endloop
  endfacet
  facet normal -1.22465e-16 -1.22465e-16 1
    outer loop
      vertex 46.5785 -0.625045 1
      vertex 48.4808 -0.4251 1
      vertex 60 5 1
    endloop
  endfacet
  facet normal -1.22465e-16 -1.22465e-16 1
    outer loop
      vertex 46.5785 -0.625045 1
      vertex 60 5 1
      vertex 37.4996 -4.04358 1
    endloop
  endfacet
  facet normal -1.22465e-16 -1.22465e-16 1
    outer loop
      vertex 48.4808 -0.4251 1
      vertex 50.3 -1.0162 1
      vertex 60 5 1
    endloop
  endfacet
  facet normal -1.22465e-16 -1.22465e-16 1
    outer loop
      vertex 60 -15 1
      vertex 37.4996 -5.95641 1
      vertex 36.7216 -7.70387 1
    endloop
  endfacet
  facet normal -1.22465e-16 -1.22465e-16 1
    outer loop
      vertex 31.5785 -9.37495 1
      vertex 29.9219 -8.41854 1
      vertex 8 -15 1
    endloop
  endfacet
  facet normal -1.22465e-16 -1.22465e-16 1
    outer loop
      vertex 60 -15 1
      vertex 36.7216 -7.70387 1
      vertex 35.3 -8.9838 1
    endloop
  endfacet
  facet normal -1.22465e-16 -1.22465e-16 1
    outer loop
      vertex 60 -15 1
      vertex 33.4808 -9.5749 1
      vertex 8 -15 1
    endloop
  endfacet
  facet normal -1.22465e-16 -1.22465e-16 1
    outer loop
      vertex 60 -15 1
      vertex 35.3 -8.9838 1
      vertex 33.4808 -9.5749 1
    endloop
  endfacet
  facet normal -1.22465e-16 -1.22465e-16 1
    outer loop
      vertex 33.4808 -9.5749 1
      vertex 31.5785 -9.37495 1
      vertex 8 -15 1
    endloop
  endfacet
  facet normal -1.22465e-16 -1.22465e-16 1
    outer loop
      vertex 28.3999 -5 1
      vertex 28.7976 -3.12897 1
      vertex 22.4996 -5.95641 1
    endloop
  endfacet
  facet normal -1.22465e-16 -1.22465e-16 1
    outer loop
      vertex 43.7976 -6.87103 1
      vertex 43.3999 -5 1
      vertex 37.4996 -4.04358 1
    endloop
  endfacet
  facet normal -1.22465e-16 -1.22465e-16 1
    outer loop
      vertex 43.3999 -5 1
      vertex 43.7976 -3.12897 1
      vertex 37.4996 -4.04358 1
    endloop
  endfacet
  facet normal -1.22465e-16 -1.22465e-16 1
    outer loop
      vertex 52.4996 -4.04358 1
      vertex 52.4996 -5.95641 1
      vertex 60 -15 1
    endloop
  endfacet
  facet normal -1.22465e-16 -1.22465e-16 1
    outer loop
      vertex 43.7976 -3.12897 1
      vertex 44.9219 -1.58146 1
      vertex 37.4996 -4.04358 1
    endloop
  endfacet
  facet normal -1.22465e-16 -1.22465e-16 1
    outer loop
      vertex 44.9219 -1.58146 1
      vertex 46.5785 -0.625045 1
      vertex 37.4996 -4.04358 1
    endloop
  endfacet
  facet normal -1.22465e-16 -1.22465e-16 1
    outer loop
      vertex 51.7216 -2.29613 1
      vertex 60 5 1
      vertex 50.3 -1.0162 1
    endloop
  endfacet
  facet normal -1.22465e-16 -1.22465e-16 1
    outer loop
      vertex 60 -15 1
      vertex 60 5 1
      vertex 51.7216 -2.29613 1
    endloop
  endfacet
  facet normal -1.22465e-16 -1.22465e-16 1
    outer loop
      vertex 60 -15 1
      vertex 51.7216 -2.29613 1
      vertex 52.4996 -4.04358 1
    endloop
  endfacet
  facet normal -1.22465e-16 -1.22465e-16 1
    outer loop
      vertex 60 -15 1
      vertex 52.4996 -5.95641 1
      vertex 51.7216 -7.70387 1
    endloop
  endfacet
  facet normal -1.22465e-16 -1.22465e-16 1
    outer loop
      vertex 60 -15 1
      vertex 51.7216 -7.70387 1
      vertex 50.3 -8.9838 1
    endloop
  endfacet
  facet normal -1.22465e-16 -1.22465e-16 1
    outer loop
      vertex 60 -15 1
      vertex 46.5785 -9.37495 1
      vertex 37.4996 -5.95641 1
    endloop
  endfacet
  facet normal -1.22465e-16 -1.22465e-16 1
    outer loop
      vertex 60 -15 1
      vertex 48.4808 -9.5749 1
      vertex 46.5785 -9.37495 1
    endloop
  endfacet
  facet normal -1.22465e-16 -1.22465e-16 1
    outer loop
      vertex 46.5785 -9.37495 1
      vertex 44.9219 -8.41854 1
      vertex 37.4996 -5.95641 1
    endloop
  endfacet
  facet normal -1.22465e-16 -1.22465e-16 1
    outer loop
      vertex 44.9219 -8.41854 1
      vertex 37.4996 -4.04358 1
      vertex 37.4996 -5.95641 1
    endloop
  endfacet
  facet normal -1.22465e-16 -1.22465e-16 1
    outer loop
      vertex 44.9219 -8.41854 1
      vertex 43.7976 -6.87103 1
      vertex 37.4996 -4.04358 1
    endloop
  endfacet
  facet normal -1.22465e-16 -1.22465e-16 1
    outer loop
      vertex 18.4808 -0.4251 1
      vertex 20.3 -1.0162 1
      vertex 60 5 1
    endloop
  endfacet
  facet normal -1.22465e-16 -1.22465e-16 1
    outer loop
      vertex 35.3 -1.0162 1
      vertex 36.7216 -2.29613 1
      vertex 60 5 1
    endloop
  endfacet
  facet normal -1.22465e-16 -1.22465e-16 1
    outer loop
      vertex 33.4808 -0.4251 1
      vertex 35.3 -1.0162 1
      vertex 60 5 1
    endloop
  endfacet
  facet normal -1.22465e-16 -1.22465e-16 1
    outer loop
      vertex 21.7216 -2.29613 1
      vertex 22.4996 -4.04358 1
      vertex 29.9219 -1.58146 1
    endloop
  endfacet
  facet normal 1.49976e-32 -1 -1.22465e-16
    outer loop
      vertex 60 -15 1
      vertex 8 -15 1
      vertex 8 -15 -20
    endloop
  endfacet
  facet normal 1.49976e-32 -1 -1.22465e-16
    outer loop
      vertex 60 -15 -20
      vertex 60 -15 1
      vertex 8 -15 -20
    endloop
  endfacet
  facet normal 1.22465e-16 1.22465e-16 -1
    outer loop
      vertex 50.4881 -5 -20
      vertex 60 5 -20
      vertex 60 -15 -20
    endloop
  endfacet
  facet normal 1.22465e-16 1.22465e-16 -1
    outer loop
      vertex 28.3999 -5 -20
      vertex 18 -7.4881 -20
      vertex 19.7594 -6.75935 -20
    endloop
  endfacet
  facet normal 1.22465e-16 1.22465e-16 -1
    outer loop
      vertex 8 5 -20
      vertex 16.2406 -3.24065 -20
      vertex 8 -15 -20
    endloop
  endfacet
  facet normal 1.22465e-16 1.22465e-16 -1
    outer loop
      vertex 16.2406 -3.24065 -20
      vertex 15.5119 -5 -20
      vertex 8 -15 -20
    endloop
  endfacet
  facet normal 1.22465e-16 1.22465e-16 -1
    outer loop
      vertex 30.6999 -1.0162 -20
      vertex 60 5 -20
      vertex 35.3 -1.0162 -20
    endloop
  endfacet
  facet normal 1.22465e-16 1.22465e-16 -1
    outer loop
      vertex 15.5119 -5 -20
      vertex 16.2406 -6.75935 -20
      vertex 8 -15 -20
    endloop
  endfacet
  facet normal 1.22465e-16 1.22465e-16 -1
    outer loop
      vertex 16.2406 -6.75935 -20
      vertex 18 -7.4881 -20
      vertex 8 -15 -20
    endloop
  endfacet
  facet normal 1.22465e-16 1.22465e-16 -1
    outer loop
      vertex 28.3999 -5 -20
      vertex 19.7594 -6.75935 -20
      vertex 20.4881 -5 -20
    endloop
  endfacet
  facet normal 1.22465e-16 1.22465e-16 -1
    outer loop
      vertex 8 5 -20
      vertex 60 5 -20
      vertex 18 -2.5119 -20
    endloop
  endfacet
  facet normal 1.22465e-16 1.22465e-16 -1
    outer loop
      vertex 8 5 -20
      vertex 18 -2.5119 -20
      vertex 16.2406 -3.24065 -20
    endloop
  endfacet
  facet normal 1.22465e-16 1.22465e-16 -1
    outer loop
      vertex 30.6999 -8.9838 -20
      vertex 8 -15 -20
      vertex 28.3999 -5 -20
    endloop
  endfacet
  facet normal 1.22465e-16 1.22465e-16 -1
    outer loop
      vertex 18 -7.4881 -20
      vertex 28.3999 -5 -20
      vertex 8 -15 -20
    endloop
  endfacet
  facet normal 1.22465e-16 1.22465e-16 -1
    outer loop
      vertex 35.3 -1.0162 -20
      vertex 60 5 -20
      vertex 37.6001 -5 -20
    endloop
  endfacet
  facet normal 1.22465e-16 1.22465e-16 -1
    outer loop
      vertex 8 -15 -20
      vertex 30.6999 -8.9838 -20
      vertex 60 -15 -20
    endloop
  endfacet
  facet normal 1.22465e-16 1.22465e-16 -1
    outer loop
      vertex 30.6999 -8.9838 -20
      vertex 35.3 -8.9838 -20
      vertex 60 -15 -20
    endloop
  endfacet
  facet normal 1.22465e-16 1.22465e-16 -1
    outer loop
      vertex 37.6001 -5 -20
      vertex 60 5 -20
      vertex 35.3 -8.9838 -20
    endloop
  endfacet
  facet normal 1.22465e-16 1.22465e-16 -1
    outer loop
      vertex 28.3999 -5 -20
      vertex 20.4881 -5 -20
      vertex 19.7594 -3.24065 -20
    endloop
  endfacet
  facet normal 1.22465e-16 1.22465e-16 -1
    outer loop
      vertex 28.3999 -5 -20
      vertex 19.7594 -3.24065 -20
      vertex 30.6999 -1.0162 -20
    endloop
  endfacet
  facet normal 1.22465e-16 1.22465e-16 -1
    outer loop
      vertex 19.7594 -3.24065 -20
      vertex 60 5 -20
      vertex 30.6999 -1.0162 -20
    endloop
  endfacet
  facet normal 1.22465e-16 1.22465e-16 -1
    outer loop
      vertex 18 -2.5119 -20
      vertex 60 5 -20
      vertex 19.7594 -3.24065 -20
    endloop
  endfacet
  facet normal 1.22465e-16 1.22465e-16 -1
    outer loop
      vertex 35.3 -8.9838 -20
      vertex 60 5 -20
      vertex 46.2406 -3.24065 -20
    endloop
  endfacet
  facet normal 1.22465e-16 1.22465e-16 -1
    outer loop
      vertex 35.3 -8.9838 -20
      vertex 46.2406 -3.24065 -20
      vertex 45.5119 -5 -20
    endloop
  endfacet
  facet normal 1.22465e-16 1.22465e-16 -1
    outer loop
      vertex 35.3 -8.9838 -20
      vertex 45.5119 -5 -20
      vertex 46.2406 -6.75935 -20
    endloop
  endfacet
  facet normal 1.22465e-16 1.22465e-16 -1
    outer loop
      vertex 35.3 -8.9838 -20
      vertex 46.2406 -6.75935 -20
      vertex 60 -15 -20
    endloop
  endfacet
  facet normal 1.22465e-16 1.22465e-16 -1
    outer loop
      vertex 46.2406 -6.75935 -20
      vertex 48 -7.4881 -20
      vertex 60 -15 -20
    endloop
  endfacet
  facet normal 1.22465e-16 1.22465e-16 -1
    outer loop
      vertex 50.4881 -5 -20
      vertex 60 -15 -20
      vertex 49.7594 -6.75935 -20
    endloop
  endfacet
  facet normal 1.22465e-16 1.22465e-16 -1
    outer loop
      vertex 49.7594 -3.24065 -20
      vertex 60 5 -20
      vertex 50.4881 -5 -20
    endloop
  endfacet
  facet normal 1.22465e-16 1.22465e-16 -1
    outer loop
      vertex 48 -2.5119 -20
      vertex 60 5 -20
      vertex 49.7594 -3.24065 -20
    endloop
  endfacet
  facet normal 1.22465e-16 1.22465e-16 -1
    outer loop
      vertex 46.2406 -3.24065 -20
      vertex 60 5 -20
      vertex 48 -2.5119 -20
    endloop
  endfacet
  facet normal 1.22465e-16 1.22465e-16 -1
    outer loop
      vertex 49.7594 -6.75935 -20
      vertex 60 -15 -20
      vertex 48 -7.4881 -20
    endloop
  endfacet
  facet normal 1 -6.01616e-49 1.22465e-16
    outer loop
      vertex 60 5 -20
      vertex 60 5 1
      vertex 60 -15 1
    endloop
  endfacet
  facet normal 1 -6.01616e-49 1.22465e-16
    outer loop
      vertex 60 -15 -20
      vertex 60 5 -20
      vertex 60 -15 1
    endloop
  endfacet
  facet normal 0.978148 -0.207912 1.19789e-16
    outer loop
      vertex 13.3999 -5 -2
      vertex 13.7976 -3.12897 -2
      vertex 13.7976 -3.12897 1
    endloop
  endfacet
  facet normal 0.978148 -0.207912 1.19789e-16
    outer loop
      vertex 13.3999 -5 1
      vertex 13.3999 -5 -2
      vertex 13.7976 -3.12897 1
    endloop
  endfacet
  facet normal 0.978148 0.207912 1.19789e-16
    outer loop
      vertex 13.7976 -6.87103 1
      vertex 13.7976 -6.87103 -2
      vertex 13.3999 -5 -2
    endloop
  endfacet
  facet normal 0.978148 0.207912 1.19789e-16
    outer loop
      vertex 13.3999 -5 1
      vertex 13.7976 -6.87103 1
      vertex 13.3999 -5 -2
    endloop
  endfacet
  facet normal 0.809017 0.587785 9.9076e-17
    outer loop
      vertex 14.9219 -8.41854 1
      vertex 14.9219 -8.41854 -2
      vertex 13.7976 -6.87103 -2
    endloop
  endfacet
  facet normal 0.809017 0.587785 9.9076e-17
    outer loop
      vertex 13.7976 -6.87103 1
      vertex 14.9219 -8.41854 1
      vertex 13.7976 -6.87103 -2
    endloop
  endfacet
  facet normal 0.5 0.866026 6.12323e-17
    outer loop
      vertex 16.5785 -9.37495 -2
      vertex 14.9219 -8.41854 -2
      vertex 16.5785 -9.37495 1
    endloop
  endfacet
  facet normal 0.5 0.866026 6.12323e-17
    outer loop
      vertex 16.5785 -9.37495 1
      vertex 14.9219 -8.41854 -2
      vertex 14.9219 -8.41854 1
    endloop
  endfacet
  facet normal 0.104528 0.994522 1.2801e-17
    outer loop
      vertex 18.4808 -9.5749 -2
      vertex 16.5785 -9.37495 -2
      vertex 18.4808 -9.5749 1
    endloop
  endfacet
  facet normal 0.104528 0.994522 1.2801e-17
    outer loop
      vertex 18.4808 -9.5749 1
      vertex 16.5785 -9.37495 -2
      vertex 16.5785 -9.37495 1
    endloop
  endfacet
  facet normal -0.309017 0.951056 -3.78437e-17
    outer loop
      vertex 20.3 -8.9838 -2
      vertex 18.4808 -9.5749 -2
      vertex 20.3 -8.9838 1
    endloop
  endfacet
  facet normal -0.309017 0.951056 -3.78437e-17
    outer loop
      vertex 20.3 -8.9838 1
      vertex 18.4808 -9.5749 -2
      vertex 18.4808 -9.5749 1
    endloop
  endfacet
  facet normal -0.66913 0.743145 -8.19448e-17
    outer loop
      vertex 21.7216 -7.70387 -2
      vertex 20.3 -8.9838 -2
      vertex 21.7216 -7.70387 1
    endloop
  endfacet
  facet normal -0.66913 0.743145 -8.19448e-17
    outer loop
      vertex 21.7216 -7.70387 1
      vertex 20.3 -8.9838 -2
      vertex 20.3 -8.9838 1
    endloop
  endfacet
  facet normal -0.913545 0.406737 -1.11877e-16
    outer loop
      vertex 22.4996 -5.95641 -2
      vertex 21.7216 -7.70387 -2
      vertex 22.4996 -5.95641 1
    endloop
  endfacet
  facet normal -0.913545 0.406737 -1.11877e-16
    outer loop
      vertex 22.4996 -5.95641 1
      vertex 21.7216 -7.70387 -2
      vertex 21.7216 -7.70387 1
    endloop
  endfacet
  facet normal -1 0 -1.22465e-16
    outer loop
      vertex 22.4996 -5.95641 -2
      vertex 22.4996 -5.95641 1
      vertex 22.4996 -4.04358 -2
    endloop
  endfacet
  facet normal -1 0 -1.22465e-16
    outer loop
      vertex 22.4996 -4.04358 -2
      vertex 22.4996 -5.95641 1
      vertex 22.4996 -4.04358 1
    endloop
  endfacet
  facet normal -0.913545 -0.406737 -1.11877e-16
    outer loop
      vertex 22.4996 -4.04358 -2
      vertex 22.4996 -4.04358 1
      vertex 21.7216 -2.29613 -2
    endloop
  endfacet
  facet normal -0.913545 -0.406737 -1.11877e-16
    outer loop
      vertex 21.7216 -2.29613 -2
      vertex 22.4996 -4.04358 1
      vertex 21.7216 -2.29613 1
    endloop
  endfacet
  facet normal -0.66913 -0.743145 -8.19448e-17
    outer loop
      vertex 20.3 -1.0162 -2
      vertex 21.7216 -2.29613 -2
      vertex 21.7216 -2.29613 1
    endloop
  endfacet
  facet normal -0.66913 -0.743145 -8.19448e-17
    outer loop
      vertex 20.3 -1.0162 1
      vertex 20.3 -1.0162 -2
      vertex 21.7216 -2.29613 1
    endloop
  endfacet
  facet normal -0.309017 -0.951056 -3.78437e-17
    outer loop
      vertex 18.4808 -0.4251 -2
      vertex 20.3 -1.0162 -2
      vertex 20.3 -1.0162 1
    endloop
  endfacet
  facet normal -0.309017 -0.951056 -3.78437e-17
    outer loop
      vertex 18.4808 -0.4251 1
      vertex 18.4808 -0.4251 -2
      vertex 20.3 -1.0162 1
    endloop
  endfacet
  facet normal 0.104528 -0.994522 1.2801e-17
    outer loop
      vertex 16.5785 -0.625045 -2
      vertex 18.4808 -0.4251 -2
      vertex 18.4808 -0.4251 1
    endloop
  endfacet
  facet normal 0.104528 -0.994522 1.2801e-17
    outer loop
      vertex 16.5785 -0.625045 1
      vertex 16.5785 -0.625045 -2
      vertex 18.4808 -0.4251 1
    endloop
  endfacet
  facet normal 0.5 -0.866026 6.12323e-17
    outer loop
      vertex 14.9219 -1.58146 -2
      vertex 16.5785 -0.625045 -2
      vertex 16.5785 -0.625045 1
    endloop
  endfacet
  facet normal 0.5 -0.866026 6.12323e-17
    outer loop
      vertex 14.9219 -1.58146 1
      vertex 14.9219 -1.58146 -2
      vertex 16.5785 -0.625045 1
    endloop
  endfacet
  facet normal 0.809017 -0.587785 9.9076e-17
    outer loop
      vertex 13.7976 -3.12897 -2
      vertex 14.9219 -1.58146 -2
      vertex 14.9219 -1.58146 1
    endloop
  endfacet
  facet normal 0.809017 -0.587785 9.9076e-17
    outer loop
      vertex 13.7976 -3.12897 1
      vertex 13.7976 -3.12897 -2
      vertex 14.9219 -1.58146 1
    endloop
  endfacet
  facet normal 0.978148 -0.207912 1.19789e-16
    outer loop
      vertex 28.3999 -5 -2
      vertex 28.7976 -3.12897 -2
      vertex 28.7976 -3.12897 1
    endloop
  endfacet
  facet normal 0.978148 -0.207912 1.19789e-16
    outer loop
      vertex 28.3999 -5 1
      vertex 28.3999 -5 -2
      vertex 28.7976 -3.12897 1
    endloop
  endfacet
  facet normal 0.978148 0.207912 1.19789e-16
    outer loop
      vertex 28.7976 -6.87103 1
      vertex 28.7976 -6.87103 -2
      vertex 28.3999 -5 -2
    endloop
  endfacet
  facet normal 0.978148 0.207912 1.19789e-16
    outer loop
      vertex 28.3999 -5 1
      vertex 28.7976 -6.87103 1
      vertex 28.3999 -5 -2
    endloop
  endfacet
  facet normal 0.809017 0.587785 9.9076e-17
    outer loop
      vertex 29.9219 -8.41854 1
      vertex 29.9219 -8.41854 -2
      vertex 28.7976 -6.87103 -2
    endloop
  endfacet
  facet normal 0.809017 0.587785 9.9076e-17
    outer loop
      vertex 28.7976 -6.87103 1
      vertex 29.9219 -8.41854 1
      vertex 28.7976 -6.87103 -2
    endloop
  endfacet
  facet normal 0.5 0.866026 6.12323e-17
    outer loop
      vertex 31.5785 -9.37495 -2
      vertex 29.9219 -8.41854 -2
      vertex 31.5785 -9.37495 1
    endloop
  endfacet
  facet normal 0.5 0.866026 6.12323e-17
    outer loop
      vertex 31.5785 -9.37495 1
      vertex 29.9219 -8.41854 -2
      vertex 29.9219 -8.41854 1
    endloop
  endfacet
  facet normal 0.104528 0.994522 1.2801e-17
    outer loop
      vertex 33.4808 -9.5749 -2
      vertex 31.5785 -9.37495 -2
      vertex 33.4808 -9.5749 1
    endloop
  endfacet
  facet normal 0.104528 0.994522 1.2801e-17
    outer loop
      vertex 33.4808 -9.5749 1
      vertex 31.5785 -9.37495 -2
      vertex 31.5785 -9.37495 1
    endloop
  endfacet
  facet normal -0.309017 0.951056 -3.78437e-17
    outer loop
      vertex 35.3 -8.9838 -2
      vertex 33.4808 -9.5749 -2
      vertex 35.3 -8.9838 1
    endloop
  endfacet
  facet normal -0.309017 0.951056 -3.78437e-17
    outer loop
      vertex 35.3 -8.9838 1
      vertex 33.4808 -9.5749 -2
      vertex 33.4808 -9.5749 1
    endloop
  endfacet
  facet normal -0.66913 0.743145 -8.19448e-17
    outer loop
      vertex 36.7216 -7.70387 -2
      vertex 35.3 -8.9838 -2
      vertex 36.7216 -7.70387 1
    endloop
  endfacet
  facet normal -0.66913 0.743145 -8.19448e-17
    outer loop
      vertex 36.7216 -7.70387 1
      vertex 35.3 -8.9838 -2
      vertex 35.3 -8.9838 1
    endloop
  endfacet
  facet normal -0.913545 0.406737 -1.11877e-16
    outer loop
      vertex 37.4996 -5.95641 -2
      vertex 36.7216 -7.70387 -2
      vertex 37.4996 -5.95641 1
    endloop
  endfacet
  facet normal -0.913545 0.406737 -1.11877e-16
    outer loop
      vertex 37.4996 -5.95641 1
      vertex 36.7216 -7.70387 -2
      vertex 36.7216 -7.70387 1
    endloop
  endfacet
  facet normal -1 0 -1.22465e-16
    outer loop
      vertex 37.4996 -5.95641 -2
      vertex 37.4996 -5.95641 1
      vertex 37.4996 -4.04358 -2
    endloop
  endfacet
  facet normal -1 0 -1.22465e-16
    outer loop
      vertex 37.4996 -4.04358 -2
      vertex 37.4996 -5.95641 1
      vertex 37.4996 -4.04358 1
    endloop
  endfacet
  facet normal -0.913545 -0.406737 -1.11877e-16
    outer loop
      vertex 37.4996 -4.04358 -2
      vertex 37.4996 -4.04358 1
      vertex 36.7216 -2.29613 -2
    endloop
  endfacet
  facet normal -0.913545 -0.406737 -1.11877e-16
    outer loop
      vertex 36.7216 -2.29613 -2
      vertex 37.4996 -4.04358 1
      vertex 36.7216 -2.29613 1
    endloop
  endfacet
  facet normal -0.66913 -0.743145 -8.19448e-17
    outer loop
      vertex 35.3 -1.0162 -2
      vertex 36.7216 -2.29613 -2
      vertex 36.7216 -2.29613 1
    endloop
  endfacet
  facet normal -0.66913 -0.743145 -8.19448e-17
    outer loop
      vertex 35.3 -1.0162 1
      vertex 35.3 -1.0162 -2
      vertex 36.7216 -2.29613 1
    endloop
  endfacet
  facet normal -0.309017 -0.951056 -3.78437e-17
    outer loop
      vertex 33.4808 -0.4251 -2
      vertex 35.3 -1.0162 -2
      vertex 35.3 -1.0162 1
    endloop
  endfacet
  facet normal -0.309017 -0.951056 -3.78437e-17
    outer loop
      vertex 33.4808 -0.4251 1
      vertex 33.4808 -0.4251 -2
      vertex 35.3 -1.0162 1
    endloop
  endfacet
  facet normal 0.104528 -0.994522 1.2801e-17
    outer loop
      vertex 31.5785 -0.625045 -2
      vertex 33.4808 -0.4251 -2
      vertex 33.4808 -0.4251 1
    endloop
  endfacet
  facet normal 0.104528 -0.994522 1.2801e-17
    outer loop
      vertex 31.5785 -0.625045 1
      vertex 31.5785 -0.625045 -2
      vertex 33.4808 -0.4251 1
    endloop
  endfacet
  facet normal 0.5 -0.866026 6.12323e-17
    outer loop
      vertex 29.9219 -1.58146 -2
      vertex 31.5785 -0.625045 -2
      vertex 31.5785 -0.625045 1
    endloop
  endfacet
  facet normal 0.5 -0.866026 6.12323e-17
    outer loop
      vertex 29.9219 -1.58146 1
      vertex 29.9219 -1.58146 -2
      vertex 31.5785 -0.625045 1
    endloop
  endfacet
  facet normal 0.809017 -0.587785 9.9076e-17
    outer loop
      vertex 28.7976 -3.12897 -2
      vertex 29.9219 -1.58146 -2
      vertex 29.9219 -1.58146 1
    endloop
  endfacet
  facet normal 0.809017 -0.587785 9.9076e-17
    outer loop
      vertex 28.7976 -3.12897 1
      vertex 28.7976 -3.12897 -2
      vertex 29.9219 -1.58146 1
    endloop
  endfacet
  facet normal 0.978148 -0.207912 1.19789e-16
    outer loop
      vertex 43.3999 -5 -2
      vertex 43.7976 -3.12897 -2
      vertex 43.7976 -3.12897 1
    endloop
  endfacet
  facet normal 0.978148 -0.207912 1.19789e-16
    outer loop
      vertex 43.3999 -5 1
      vertex 43.3999 -5 -2
      vertex 43.7976 -3.12897 1
    endloop
  endfacet
  facet normal 0.978148 0.207912 1.19789e-16
    outer loop
      vertex 43.7976 -6.87103 1
      vertex 43.7976 -6.87103 -2
      vertex 43.3999 -5 -2
    endloop
  endfacet
  facet normal 0.978148 0.207912 1.19789e-16
    outer loop
      vertex 43.3999 -5 1
      vertex 43.7976 -6.87103 1
      vertex 43.3999 -5 -2
    endloop
  endfacet
  facet normal 0.809017 0.587785 9.9076e-17
    outer loop
      vertex 44.9219 -8.41854 1
      vertex 44.9219 -8.41854 -2
      vertex 43.7976 -6.87103 -2
    endloop
  endfacet
  facet normal 0.809017 0.587785 9.9076e-17
    outer loop
      vertex 43.7976 -6.87103 1
      vertex 44.9219 -8.41854 1
      vertex 43.7976 -6.87103 -2
    endloop
  endfacet
  facet normal 0.5 0.866026 6.12323e-17
    outer loop
      vertex 46.5785 -9.37495 -2
      vertex 44.9219 -8.41854 -2
      vertex 46.5785 -9.37495 1
    endloop
  endfacet
  facet normal 0.5 0.866026 6.12323e-17
    outer loop
      vertex 46.5785 -9.37495 1
      vertex 44.9219 -8.41854 -2
      vertex 44.9219 -8.41854 1
    endloop
  endfacet
  facet normal 0.104528 0.994522 1.2801e-17
    outer loop
      vertex 48.4808 -9.5749 -2
      vertex 46.5785 -9.37495 -2
      vertex 48.4808 -9.5749 1
    endloop
  endfacet
  facet normal 0.104528 0.994522 1.2801e-17
    outer loop
      vertex 48.4808 -9.5749 1
      vertex 46.5785 -9.37495 -2
      vertex 46.5785 -9.37495 1
    endloop
  endfacet
  facet normal -0.309017 0.951056 -3.78437e-17
    outer loop
      vertex 50.3 -8.9838 -2
      vertex 48.4808 -9.5749 -2
      vertex 50.3 -8.9838 1
    endloop
  endfacet
  facet normal -0.309017 0.951056 -3.78437e-17
    outer loop
      vertex 50.3 -8.9838 1
      vertex 48.4808 -9.5749 -2
      vertex 48.4808 -9.5749 1
    endloop
  endfacet
  facet normal -0.66913 0.743145 -8.19448e-17
    outer loop
      vertex 51.7216 -7.70387 -2
      vertex 50.3 -8.9838 -2
      vertex 51.7216 -7.70387 1
    endloop
  endfacet
  facet normal -0.66913 0.743145 -8.19448e-17
    outer loop
      vertex 51.7216 -7.70387 1
      vertex 50.3 -8.9838 -2
      vertex 50.3 -8.9838 1
    endloop
  endfacet
  facet normal -0.913545 0.406737 -1.11877e-16
    outer loop
      vertex 52.4996 -5.95641 -2
      vertex 51.7216 -7.70387 -2
      vertex 52.4996 -5.95641 1
    endloop
  endfacet
  facet normal -0.913545 0.406737 -1.11877e-16
    outer loop
      vertex 52.4996 -5.95641 1
      vertex 51.7216 -7.70387 -2
      vertex 51.7216 -7.70387 1
    endloop
  endfacet
  facet normal -1 0 -1.22465e-16
    outer loop
      vertex 52.4996 -5.95641 -2
      vertex 52.4996 -5.95641 1
      vertex 52.4996 -4.04358 -2
    endloop
  endfacet
  facet normal -1 0 -1.22465e-16
    outer loop
      vertex 52.4996 -4.04358 -2
      vertex 52.4996 -5.95641 1
      vertex 52.4996 -4.04358 1
    endloop
  endfacet
  facet normal -0.913545 -0.406737 -1.11877e-16
    outer loop
      vertex 52.4996 -4.04358 -2
      vertex 52.4996 -4.04358 1
      vertex 51.7216 -2.29613 -2
    endloop
  endfacet
  facet normal -0.913545 -0.406737 -1.11877e-16
    outer loop
      vertex 51.7216 -2.29613 -2
      vertex 52.4996 -4.04358 1
      vertex 51.7216 -2.29613 1
    endloop
  endfacet
  facet normal -0.66913 -0.743145 -8.19448e-17
    outer loop
      vertex 50.3 -1.0162 -2
      vertex 51.7216 -2.29613 -2
      vertex 51.7216 -2.29613 1
    endloop
  endfacet
  facet normal -0.66913 -0.743145 -8.19448e-17
    outer loop
      vertex 50.3 -1.0162 1
      vertex 50.3 -1.0162 -2
      vertex 51.7216 -2.29613 1
    endloop
  endfacet
  facet normal -0.309017 -0.951056 -3.78437e-17
    outer loop
      vertex 48.4808 -0.4251 -2
      vertex 50.3 -1.0162 -2
      vertex 50.3 -1.0162 1
    endloop
  endfacet
  facet normal -0.309017 -0.951056 -3.78437e-17
    outer loop
      vertex 48.4808 -0.4251 1
      vertex 48.4808 -0.4251 -2
      vertex 50.3 -1.0162 1
    endloop
  endfacet
  facet normal 0.104528 -0.994522 1.2801e-17
    outer loop
      vertex 46.5785 -0.625045 -2
      vertex 48.4808 -0.4251 -2
      vertex 48.4808 -0.4251 1
    endloop
  endfacet
  facet normal 0.104528 -0.994522 1.2801e-17
    outer loop
      vertex 46.5785 -0.625045 1
      vertex 46.5785 -0.625045 -2
      vertex 48.4808 -0.4251 1
    endloop
  endfacet
  facet normal 0.5 -0.866026 6.12323e-17
    outer loop
      vertex 44.9219 -1.58146 -2
      vertex 46.5785 -0.625045 -2
      vertex 46.5785 -0.625045 1
    endloop
  endfacet
  facet normal 0.5 -0.866026 6.12323e-17
    outer loop
      vertex 44.9219 -1.58146 1
      vertex 44.9219 -1.58146 -2
      vertex 46.5785 -0.625045 1
    endloop
  endfacet
  facet normal 0.809017 -0.587785 9.9076e-17
    outer loop
      vertex 43.7976 -3.12897 -2
      vertex 44.9219 -1.58146 -2
      vertex 44.9219 -1.58146 1
    endloop
  endfacet
  facet normal 0.809017 -0.587785 9.9076e-17
    outer loop
      vertex 43.7976 -3.12897 1
      vertex 43.7976 -3.12897 -2
      vertex 44.9219 -1.58146 1
    endloop
  endfacet
  facet normal 0.923879 -0.382684 1.13143e-16
    outer loop
      vertex 15.5119 -5 -20
      vertex 16.2406 -3.24065 -20
      vertex 16.2406 -3.24065 -2
    endloop
  endfacet
  facet normal 0.923879 -0.382684 1.13143e-16
    outer loop
      vertex 15.5119 -5 -2
      vertex 15.5119 -5 -20
      vertex 16.2406 -3.24065 -2
    endloop
  endfacet
  facet normal 0.382684 -0.923879 4.68652e-17
    outer loop
      vertex 16.2406 -3.24065 -20
      vertex 18 -2.5119 -20
      vertex 18 -2.5119 -2
    endloop
  endfacet
  facet normal 0.382684 -0.923879 4.68652e-17
    outer loop
      vertex 16.2406 -3.24065 -2
      vertex 16.2406 -3.24065 -20
      vertex 18 -2.5119 -2
    endloop
  endfacet
  facet normal -0.382684 -0.923879 -4.68652e-17
    outer loop
      vertex 18 -2.5119 -20
      vertex 19.7594 -3.24065 -20
      vertex 19.7594 -3.24065 -2
    endloop
  endfacet
  facet normal -0.382684 -0.923879 -4.68652e-17
    outer loop
      vertex 18 -2.5119 -2
      vertex 18 -2.5119 -20
      vertex 19.7594 -3.24065 -2
    endloop
  endfacet
  facet normal -0.923879 -0.382684 -1.13143e-16
    outer loop
      vertex 20.4881 -5 -20
      vertex 20.4881 -5 -2
      vertex 19.7594 -3.24065 -20
    endloop
  endfacet
  facet normal -0.923879 -0.382684 -1.13143e-16
    outer loop
      vertex 19.7594 -3.24065 -20
      vertex 20.4881 -5 -2
      vertex 19.7594 -3.24065 -2
    endloop
  endfacet
  facet normal -0.923879 0.382684 -1.13143e-16
    outer loop
      vertex 20.4881 -5 -20
      vertex 19.7594 -6.75935 -20
      vertex 20.4881 -5 -2
    endloop
  endfacet
  facet normal -0.923879 0.382684 -1.13143e-16
    outer loop
      vertex 20.4881 -5 -2
      vertex 19.7594 -6.75935 -20
      vertex 19.7594 -6.75935 -2
    endloop
  endfacet
  facet normal -0.382684 0.923879 -4.68652e-17
    outer loop
      vertex 19.7594 -6.75935 -20
      vertex 18 -7.4881 -20
      vertex 19.7594 -6.75935 -2
    endloop
  endfacet
  facet normal -0.382684 0.923879 -4.68652e-17
    outer loop
      vertex 19.7594 -6.75935 -2
      vertex 18 -7.4881 -20
      vertex 18 -7.4881 -2
    endloop
  endfacet
  facet normal 0.382684 0.923879 4.68652e-17
    outer loop
      vertex 18 -7.4881 -20
      vertex 16.2406 -6.75935 -20
      vertex 18 -7.4881 -2
    endloop
  endfacet
  facet normal 0.382684 0.923879 4.68652e-17
    outer loop
      vertex 18 -7.4881 -2
      vertex 16.2406 -6.75935 -20
      vertex 16.2406 -6.75935 -2
    endloop
  endfacet
  facet normal 0.923879 0.382684 1.13143e-16
    outer loop
      vertex 16.2406 -6.75935 -2
      vertex 16.2406 -6.75935 -20
      vertex 15.5119 -5 -20
    endloop
  endfacet
  facet normal 0.923879 0.382684 1.13143e-16
    outer loop
      vertex 15.5119 -5 -2
      vertex 16.2406 -6.75935 -2
      vertex 15.5119 -5 -20
    endloop
  endfacet
  facet normal 0.866025 -0.5 0
    outer loop
      vertex 30.6999 -1.0162 -20
      vertex 30.6999 -1.0162 -16.9999
      vertex 28.3999 -5 -16.9999
    endloop
  endfacet
  facet normal 0.866025 -0.5 0
    outer loop
      vertex 28.3999 -5 -20
      vertex 30.6999 -1.0162 -20
      vertex 28.3999 -5 -16.9999
    endloop
  endfacet
  facet normal 0.866025 0.5 0
    outer loop
      vertex 28.3999 -5 -16.9999
      vertex 30.6999 -8.9838 -16.9999
      vertex 30.6999 -8.9838 -20
    endloop
  endfacet
  facet normal 0.866025 0.5 0
    outer loop
      vertex 28.3999 -5 -20
      vertex 28.3999 -5 -16.9999
      vertex 30.6999 -8.9838 -20
    endloop
  endfacet
  facet normal 0 -1 0
    outer loop
      vertex 35.3 -1.0162 -20
      vertex 35.3 -1.0162 -16.9999
      vertex 30.6999 -1.0162 -16.9999
    endloop
  endfacet
  facet normal 0 -1 0
    outer loop
      vertex 30.6999 -1.0162 -20
      vertex 35.3 -1.0162 -20
      vertex 30.6999 -1.0162 -16.9999
    endloop
  endfacet
  facet normal -0.866025 -0.5 0
    outer loop
      vertex 37.6001 -5 -16.9999
      vertex 35.3 -1.0162 -16.9999
      vertex 37.6001 -5 -20
    endloop
  endfacet
  facet normal -0.866025 -0.5 0
    outer loop
      vertex 37.6001 -5 -20
      vertex 35.3 -1.0162 -16.9999
      vertex 35.3 -1.0162 -20
    endloop
  endfacet
  facet normal -0.866025 0.5 0
    outer loop
      vertex 37.6001 -5 -16.9999
      vertex 37.6001 -5 -20
      vertex 35.3 -8.9838 -16.9999
    endloop
  endfacet
  facet normal -0.866025 0.5 0
    outer loop
      vertex 35.3 -8.9838 -16.9999
      vertex 37.6001 -5 -20
      vertex 35.3 -8.9838 -20
    endloop
  endfacet
  facet normal 0 1 0
    outer loop
      vertex 35.3 -8.9838 -16.9999
      vertex 35.3 -8.9838 -20
      vertex 30.6999 -8.9838 -16.9999
    endloop
  endfacet
  facet normal 0 1 0
    outer loop
      vertex 30.6999 -8.9838 -16.9999
      vertex 35.3 -8.9838 -20
      vertex 30.6999 -8.9838 -20
    endloop
  endfacet
  facet normal 0.923879 -0.382684 1.13143e-16
    outer loop
      vertex 45.5119 -5 -20
      vertex 46.2406 -3.24065 -20
      vertex 46.2406 -3.24065 -2
    endloop
  endfacet
  facet normal 0.923879 -0.382684 1.13143e-16
    outer loop
      vertex 45.5119 -5 -2
      vertex 45.5119 -5 -20
      vertex 46.2406 -3.24065 -2
    endloop
  endfacet
  facet normal 0.382684 -0.923879 4.68652e-17
    outer loop
      vertex 46.2406 -3.24065 -20
      vertex 48 -2.5119 -20
      vertex 48 -2.5119 -2
    endloop
  endfacet
  facet normal 0.382684 -0.923879 4.68652e-17
    outer loop
      vertex 46.2406 -3.24065 -2
      vertex 46.2406 -3.24065 -20
      vertex 48 -2.5119 -2
    endloop
  endfacet
  facet normal -0.382684 -0.923879 -4.68652e-17
    outer loop
      vertex 48 -2.5119 -20
      vertex 49.7594 -3.24065 -20
      vertex 49.7594 -3.24065 -2
    endloop
  endfacet
  facet normal -0.382684 -0.923879 -4.68652e-17
    outer loop
      vertex 48 -2.5119 -2
      vertex 48 -2.5119 -20
      vertex 49.7594 -3.24065 -2
    endloop
  endfacet
  facet normal -0.923879 -0.382684 -1.13143e-16
    outer loop
      vertex 50.4881 -5 -20
      vertex 50.4881 -5 -2
      vertex 49.7594 -3.24065 -20
    endloop
  endfacet
  facet normal -0.923879 -0.382684 -1.13143e-16
    outer loop
      vertex 49.7594 -3.24065 -20
      vertex 50.4881 -5 -2
      vertex 49.7594 -3.24065 -2
    endloop
  endfacet
  facet normal -0.923879 0.382684 -1.13143e-16
    outer loop
      vertex 50.4881 -5 -20
      vertex 49.7594 -6.75935 -20
      vertex 50.4881 -5 -2
    endloop
  endfacet
  facet normal -0.923879 0.382684 -1.13143e-16
    outer loop
      vertex 50.4881 -5 -2
      vertex 49.7594 -6.75935 -20
      vertex 49.7594 -6.75935 -2
    endloop
  endfacet
  facet normal -0.382684 0.923879 -4.68652e-17
    outer loop
      vertex 49.7594 -6.75935 -20
      vertex 48 -7.4881 -20
      vertex 49.7594 -6.75935 -2
    endloop
  endfacet
  facet normal -0.382684 0.923879 -4.68652e-17
    outer loop
      vertex 49.7594 -6.75935 -2
      vertex 48 -7.4881 -20
      vertex 48 -7.4881 -2
    endloop
  endfacet
  facet normal 0.382684 0.923879 4.68652e-17
    outer loop
      vertex 48 -7.4881 -20
      vertex 46.2406 -6.75935 -20
      vertex 48 -7.4881 -2
    endloop
  endfacet
  facet normal 0.382684 0.923879 4.68652e-17
    outer loop
      vertex 48 -7.4881 -2
      vertex 46.2406 -6.75935 -20
      vertex 46.2406 -6.75935 -2
    endloop
  endfacet
  facet normal 0.923879 0.382684 1.13143e-16
    outer loop
      vertex 46.2406 -6.75935 -2
      vertex 46.2406 -6.75935 -20
      vertex 45.5119 -5 -20
    endloop
  endfacet
  facet normal 0.923879 0.382684 1.13143e-16
    outer loop
      vertex 45.5119 -5 -2
      vertex 46.2406 -6.75935 -2
      vertex 45.5119 -5 -20
    endloop
  endfacet
  facet normal -1.22465e-16 0 1
    outer loop
      vertex 13.7976 -6.87103 -2
      vertex 14.9219 -8.41854 -2
      vertex 16.5785 -9.37495 -2
    endloop
  endfacet
  facet normal -1.22465e-16 0 1
    outer loop
      vertex 20.3 -8.9838 -2
      vertex 13.7976 -6.87103 -2
      vertex 18.4808 -9.5749 -2
    endloop
  endfacet
  facet normal -1.22465e-16 0 1
    outer loop
      vertex 18.4808 -9.5749 -2
      vertex 13.7976 -6.87103 -2
      vertex 16.5785 -9.37495 -2
    endloop
  endfacet
  facet normal -1.22465e-16 0 1
    outer loop
      vertex 18 -7.4881 -2
      vertex 13.7976 -6.87103 -2
      vertex 20.3 -8.9838 -2
    endloop
  endfacet
  facet normal -1.22465e-16 0 1
    outer loop
      vertex 18 -7.4881 -2
      vertex 16.2406 -6.75935 -2
      vertex 13.7976 -6.87103 -2
    endloop
  endfacet
  facet normal -1.22465e-16 0 1
    outer loop
      vertex 20.4881 -5 -2
      vertex 19.7594 -6.75935 -2
      vertex 22.4996 -5.95641 -2
    endloop
  endfacet
  facet normal -1.22465e-16 0 1
    outer loop
      vertex 18 -2.5119 -2
      vertex 19.7594 -3.24065 -2
      vertex 20.3 -1.0162 -2
    endloop
  endfacet
  facet normal -1.22465e-16 0 1
    outer loop
      vertex 14.9219 -1.58146 -2
      vertex 13.7976 -6.87103 -2
      vertex 16.5785 -0.625045 -2
    endloop
  endfacet
  facet normal -1.22465e-16 0 1
    outer loop
      vertex 13.7976 -3.12897 -2
      vertex 13.7976 -6.87103 -2
      vertex 14.9219 -1.58146 -2
    endloop
  endfacet
  facet normal -1.22465e-16 0 1
    outer loop
      vertex 13.3999 -5 -2
      vertex 13.7976 -6.87103 -2
      vertex 13.7976 -3.12897 -2
    endloop
  endfacet
  facet normal -1.22465e-16 0 1
    outer loop
      vertex 19.7594 -3.24065 -2
      vertex 20.4881 -5 -2
      vertex 22.4996 -4.04358 -2
    endloop
  endfacet
  facet normal -1.22465e-16 0 1
    outer loop
      vertex 16.2406 -3.24065 -2
      vertex 18 -2.5119 -2
      vertex 18.4808 -0.4251 -2
    endloop
  endfacet
  facet normal -1.22465e-16 0 1
    outer loop
      vertex 16.5785 -0.625045 -2
      vertex 16.2406 -3.24065 -2
      vertex 18.4808 -0.4251 -2
    endloop
  endfacet
  facet normal -1.22465e-16 0 1
    outer loop
      vertex 16.5785 -0.625045 -2
      vertex 13.7976 -6.87103 -2
      vertex 16.2406 -3.24065 -2
    endloop
  endfacet
  facet normal -1.22465e-16 0 1
    outer loop
      vertex 18.4808 -0.4251 -2
      vertex 18 -2.5119 -2
      vertex 20.3 -1.0162 -2
    endloop
  endfacet
  facet normal -1.22465e-16 0 1
    outer loop
      vertex 20.3 -1.0162 -2
      vertex 19.7594 -3.24065 -2
      vertex 21.7216 -2.29613 -2
    endloop
  endfacet
  facet normal -1.22465e-16 0 1
    outer loop
      vertex 15.5119 -5 -2
      vertex 16.2406 -3.24065 -2
      vertex 13.7976 -6.87103 -2
    endloop
  endfacet
  facet normal -1.22465e-16 0 1
    outer loop
      vertex 22.4996 -4.04358 -2
      vertex 20.4881 -5 -2
      vertex 22.4996 -5.95641 -2
    endloop
  endfacet
  facet normal -1.22465e-16 0 1
    outer loop
      vertex 22.4996 -5.95641 -2
      vertex 19.7594 -6.75935 -2
      vertex 21.7216 -7.70387 -2
    endloop
  endfacet
  facet normal -1.22465e-16 0 1
    outer loop
      vertex 21.7216 -7.70387 -2
      vertex 18 -7.4881 -2
      vertex 20.3 -8.9838 -2
    endloop
  endfacet
  facet normal -1.22465e-16 0 1
    outer loop
      vertex 19.7594 -3.24065 -2
      vertex 22.4996 -4.04358 -2
      vertex 21.7216 -2.29613 -2
    endloop
  endfacet
  facet normal -1.22465e-16 0 1
    outer loop
      vertex 19.7594 -6.75935 -2
      vertex 18 -7.4881 -2
      vertex 21.7216 -7.70387 -2
    endloop
  endfacet
  facet normal -1.22465e-16 0 1
    outer loop
      vertex 16.2406 -6.75935 -2
      vertex 15.5119 -5 -2
      vertex 13.7976 -6.87103 -2
    endloop
  endfacet
  facet normal -1.22465e-16 0 1
    outer loop
      vertex 28.7976 -6.87103 -2
      vertex 29.9219 -8.41854 -2
      vertex 31.5785 -9.37495 -2
    endloop
  endfacet
  facet normal -1.22465e-16 0 1
    outer loop
      vertex 35.3 -8.9838 -2
      vertex 28.7976 -6.87103 -2
      vertex 33.4808 -9.5749 -2
    endloop
  endfacet
  facet normal -1.22465e-16 0 1
    outer loop
      vertex 33.4808 -9.5749 -2
      vertex 28.7976 -6.87103 -2
      vertex 31.5785 -9.37495 -2
    endloop
  endfacet
  facet normal -1.22465e-16 0 1
    outer loop
      vertex 33 -7.4881 -2
      vertex 28.7976 -6.87103 -2
      vertex 35.3 -8.9838 -2
    endloop
  endfacet
  facet normal -1.22465e-16 0 1
    outer loop
      vertex 33 -7.4881 -2
      vertex 31.2406 -6.75935 -2
      vertex 28.7976 -6.87103 -2
    endloop
  endfacet
  facet normal -1.22465e-16 0 1
    outer loop
      vertex 35.4881 -5 -2
      vertex 34.7594 -6.75935 -2
      vertex 37.4996 -5.95641 -2
    endloop
  endfacet
  facet normal -1.22465e-16 0 1
    outer loop
      vertex 33 -2.5119 -2
      vertex 34.7594 -3.24065 -2
      vertex 35.3 -1.0162 -2
    endloop
  endfacet
  facet normal -1.22465e-16 0 1
    outer loop
      vertex 29.9219 -1.58146 -2
      vertex 28.7976 -6.87103 -2
      vertex 31.5785 -0.625045 -2
    endloop
  endfacet
  facet normal -1.22465e-16 0 1
    outer loop
      vertex 28.7976 -3.12897 -2
      vertex 28.7976 -6.87103 -2
      vertex 29.9219 -1.58146 -2
    endloop
  endfacet
  facet normal -1.22465e-16 0 1
    outer loop
      vertex 28.3999 -5 -2
      vertex 28.7976 -6.87103 -2
      vertex 28.7976 -3.12897 -2
    endloop
  endfacet
  facet normal -1.22465e-16 0 1
    outer loop
      vertex 34.7594 -3.24065 -2
      vertex 35.4881 -5 -2
      vertex 37.4996 -4.04358 -2
    endloop
  endfacet
  facet normal -1.22465e-16 0 1
    outer loop
      vertex 31.2406 -3.24065 -2
      vertex 33 -2.5119 -2
      vertex 33.4808 -0.4251 -2
    endloop
  endfacet
  facet normal -1.22465e-16 0 1
    outer loop
      vertex 31.5785 -0.625045 -2
      vertex 31.2406 -3.24065 -2
      vertex 33.4808 -0.4251 -2
    endloop
  endfacet
  facet normal -1.22465e-16 0 1
    outer loop
      vertex 31.5785 -0.625045 -2
      vertex 28.7976 -6.87103 -2
      vertex 31.2406 -3.24065 -2
    endloop
  endfacet
  facet normal -1.22465e-16 0 1
    outer loop
      vertex 33.4808 -0.4251 -2
      vertex 33 -2.5119 -2
      vertex 35.3 -1.0162 -2
    endloop
  endfacet
  facet normal -1.22465e-16 0 1
    outer loop
      vertex 35.3 -1.0162 -2
      vertex 34.7594 -3.24065 -2
      vertex 36.7216 -2.29613 -2
    endloop
  endfacet
  facet normal -1.22465e-16 0 1
    outer loop
      vertex 30.5119 -5 -2
      vertex 31.2406 -3.24065 -2
      vertex 28.7976 -6.87103 -2
    endloop
  endfacet
  facet normal -1.22465e-16 0 1
    outer loop
      vertex 37.4996 -4.04358 -2
      vertex 35.4881 -5 -2
      vertex 37.4996 -5.95641 -2
    endloop
  endfacet
  facet normal -1.22465e-16 0 1
    outer loop
      vertex 37.4996 -5.95641 -2
      vertex 34.7594 -6.75935 -2
      vertex 36.7216 -7.70387 -2
    endloop
  endfacet
  facet normal -1.22465e-16 0 1
    outer loop
      vertex 36.7216 -7.70387 -2
      vertex 33 -7.4881 -2
      vertex 35.3 -8.9838 -2
    endloop
  endfacet
  facet normal -1.22465e-16 0 1
    outer loop
      vertex 34.7594 -3.24065 -2
      vertex 37.4996 -4.04358 -2
      vertex 36.7216 -2.29613 -2
    endloop
  endfacet
  facet normal -1.22465e-16 0 1
    outer loop
      vertex 34.7594 -6.75935 -2
      vertex 33 -7.4881 -2
      vertex 36.7216 -7.70387 -2
    endloop
  endfacet
  facet normal -1.22465e-16 0 1
    outer loop
      vertex 31.2406 -6.75935 -2
      vertex 30.5119 -5 -2
      vertex 28.7976 -6.87103 -2
    endloop
  endfacet
  facet normal -1.22465e-16 0 1
    outer loop
      vertex 43.7976 -6.87103 -2
      vertex 44.9219 -8.41854 -2
      vertex 46.5785 -9.37495 -2
    endloop
  endfacet
  facet normal -1.22465e-16 0 1
    outer loop
      vertex 50.3 -8.9838 -2
      vertex 43.7976 -6.87103 -2
      vertex 48.4808 -9.5749 -2
    endloop
  endfacet
  facet normal -1.22465e-16 0 1
    outer loop
      vertex 48.4808 -9.5749 -2
      vertex 43.7976 -6.87103 -2
      vertex 46.5785 -9.37495 -2
    endloop
  endfacet
  facet normal -1.22465e-16 0 1
    outer loop
      vertex 48 -7.4881 -2
      vertex 43.7976 -6.87103 -2
      vertex 50.3 -8.9838 -2
    endloop
  endfacet
  facet normal -1.22465e-16 0 1
    outer loop
      vertex 48 -7.4881 -2
      vertex 46.2406 -6.75935 -2
      vertex 43.7976 -6.87103 -2
    endloop
  endfacet
  facet normal -1.22465e-16 0 1
    outer loop
      vertex 50.4881 -5 -2
      vertex 49.7594 -6.75935 -2
      vertex 52.4996 -5.95641 -2
    endloop
  endfacet
  facet normal -1.22465e-16 0 1
    outer loop
      vertex 48 -2.5119 -2
      vertex 49.7594 -3.24065 -2
      vertex 50.3 -1.0162 -2
    endloop
  endfacet
  facet normal -1.22465e-16 0 1
    outer loop
      vertex 44.9219 -1.58146 -2
      vertex 43.7976 -6.87103 -2
      vertex 46.5785 -0.625045 -2
    endloop
  endfacet
  facet normal -1.22465e-16 0 1
    outer loop
      vertex 43.7976 -3.12897 -2
      vertex 43.7976 -6.87103 -2
      vertex 44.9219 -1.58146 -2
    endloop
  endfacet
  facet normal -1.22465e-16 0 1
    outer loop
      vertex 43.3999 -5 -2
      vertex 43.7976 -6.87103 -2
      vertex 43.7976 -3.12897 -2
    endloop
  endfacet
  facet normal -1.22465e-16 0 1
    outer loop
      vertex 49.7594 -3.24065 -2
      vertex 50.4881 -5 -2
      vertex 52.4996 -4.04358 -2
    endloop
  endfacet
  facet normal -1.22465e-16 0 1
    outer loop
      vertex 46.2406 -3.24065 -2
      vertex 48 -2.5119 -2
      vertex 48.4808 -0.4251 -2
    endloop
  endfacet
  facet normal -1.22465e-16 0 1
    outer loop
      vertex 46.5785 -0.625045 -2
      vertex 46.2406 -3.24065 -2
      vertex 48.4808 -0.4251 -2
    endloop
  endfacet
  facet normal -1.22465e-16 0 1
    outer loop
      vertex 46.5785 -0.625045 -2
      vertex 43.7976 -6.87103 -2
      vertex 46.2406 -3.24065 -2
    endloop
  endfacet
  facet normal -1.22465e-16 0 1
    outer loop
      vertex 48.4808 -0.4251 -2
      vertex 48 -2.5119 -2
      vertex 50.3 -1.0162 -2
    endloop
  endfacet
  facet normal -1.22465e-16 0 1
    outer loop
      vertex 50.3 -1.0162 -2
      vertex 49.7594 -3.24065 -2
      vertex 51.7216 -2.29613 -2
    endloop
  endfacet
  facet normal -1.22465e-16 0 1
    outer loop
      vertex 45.5119 -5 -2
      vertex 46.2406 -3.24065 -2
      vertex 43.7976 -6.87103 -2
    endloop
  endfacet
  facet normal -1.22465e-16 0 1
    outer loop
      vertex 52.4996 -4.04358 -2
      vertex 50.4881 -5 -2
      vertex 52.4996 -5.95641 -2
    endloop
  endfacet
  facet normal -1.22465e-16 0 1
    outer loop
      vertex 52.4996 -5.95641 -2
      vertex 49.7594 -6.75935 -2
      vertex 51.7216 -7.70387 -2
    endloop
  endfacet
  facet normal -1.22465e-16 0 1
    outer loop
      vertex 51.7216 -7.70387 -2
      vertex 48 -7.4881 -2
      vertex 50.3 -8.9838 -2
    endloop
  endfacet
  facet normal -1.22465e-16 0 1
    outer loop
      vertex 49.7594 -3.24065 -2
      vertex 52.4996 -4.04358 -2
      vertex 51.7216 -2.29613 -2
    endloop
  endfacet
  facet normal -1.22465e-16 0 1
    outer loop
      vertex 49.7594 -6.75935 -2
      vertex 48 -7.4881 -2
      vertex 51.7216 -7.70387 -2
    endloop
  endfacet
  facet normal -1.22465e-16 0 1
    outer loop
      vertex 46.2406 -6.75935 -2
      vertex 45.5119 -5 -2
      vertex 43.7976 -6.87103 -2
    endloop
  endfacet
  facet normal 0 0 -1
    outer loop
      vertex 31.2406 -3.24065 -16.9999
      vertex 30.6999 -1.0162 -16.9999
      vertex 33 -2.5119 -16.9999
    endloop
  endfacet
  facet normal 0 0 -1
    outer loop
      vertex 34.7594 -6.75935 -16.9999
      vertex 37.6001 -5 -16.9999
      vertex 35.3 -8.9838 -16.9999
    endloop
  endfacet
  facet normal 0 0 -1
    outer loop
      vertex 31.2406 -6.75935 -16.9999
      vertex 35.3 -8.9838 -16.9999
      vertex 30.6999 -8.9838 -16.9999
    endloop
  endfacet
  facet normal 0 0 -1
    outer loop
      vertex 30.5119 -5 -16.9999
      vertex 30.6999 -8.9838 -16.9999
      vertex 28.3999 -5 -16.9999
    endloop
  endfacet
  facet normal 0 0 -1
    outer loop
      vertex 33 -7.4881 -16.9999
      vertex 35.3 -8.9838 -16.9999
      vertex 31.2406 -6.75935 -16.9999
    endloop
  endfacet
  facet normal 0 0 -1
    outer loop
      vertex 34.7594 -6.75935 -16.9999
      vertex 35.3 -8.9838 -16.9999
      vertex 33 -7.4881 -16.9999
    endloop
  endfacet
  facet normal 0 0 -1
    outer loop
      vertex 33 -2.5119 -16.9999
      vertex 30.6999 -1.0162 -16.9999
      vertex 34.7594 -3.24065 -16.9999
    endloop
  endfacet
  facet normal 0 0 -1
    outer loop
      vertex 35.4881 -5 -16.9999
      vertex 37.6001 -5 -16.9999
      vertex 34.7594 -6.75935 -16.9999
    endloop
  endfacet
  facet normal 0 0 -1
    outer loop
      vertex 34.7594 -3.24065 -16.9999
      vertex 37.6001 -5 -16.9999
      vertex 35.4881 -5 -16.9999
    endloop
  endfacet
  facet normal 0 0 -1
    outer loop
      vertex 35.3 -1.0162 -16.9999
      vertex 37.6001 -5 -16.9999
      vertex 34.7594 -3.24065 -16.9999
    endloop
  endfacet
  facet normal 0 0 -1
    outer loop
      vertex 35.3 -1.0162 -16.9999
      vertex 34.7594 -3.24065 -16.9999
      vertex 30.6999 -1.0162 -16.9999
    endloop
  endfacet
  facet normal 0 0 -1
    outer loop
      vertex 30.5119 -5 -16.9999
      vertex 30.6999 -1.0162 -16.9999
      vertex 31.2406 -3.24065 -16.9999
    endloop
  endfacet
  facet normal 0 0 -1
    outer loop
      vertex 30.6999 -1.0162 -16.9999
      vertex 30.5119 -5 -16.9999
      vertex 28.3999 -5 -16.9999
    endloop
  endfacet
  facet normal 0 0 -1
    outer loop
      vertex 31.2406 -6.75935 -16.9999
      vertex 30.6999 -8.9838 -16.9999
      vertex 30.5119 -5 -16.9999
    endloop
  endfacet
  facet normal 0.923879 -0.382684 1.13143e-16
    outer loop
      vertex 30.5119 -5 -16.9999
      vertex 31.2406 -3.24065 -16.9999
      vertex 31.2406 -3.24065 -2
    endloop
  endfacet
  facet normal 0.923879 -0.382684 1.13143e-16
    outer loop
      vertex 30.5119 -5 -2
      vertex 30.5119 -5 -16.9999
      vertex 31.2406 -3.24065 -2
    endloop
  endfacet
  facet normal 0.923879 0.382684 1.13143e-16
    outer loop
      vertex 31.2406 -6.75935 -2
      vertex 31.2406 -6.75935 -16.9999
      vertex 30.5119 -5 -16.9999
    endloop
  endfacet
  facet normal 0.923879 0.382684 1.13143e-16
    outer loop
      vertex 30.5119 -5 -2
      vertex 31.2406 -6.75935 -2
      vertex 30.5119 -5 -16.9999
    endloop
  endfacet
  facet normal 0.382684 0.923879 4.68652e-17
    outer loop
      vertex 33 -7.4881 -16.9999
      vertex 31.2406 -6.75935 -16.9999
      vertex 33 -7.4881 -2
    endloop
  endfacet
  facet normal 0.382684 0.923879 4.68652e-17
    outer loop
      vertex 33 -7.4881 -2
      vertex 31.2406 -6.75935 -16.9999
      vertex 31.2406 -6.75935 -2
    endloop
  endfacet
  facet normal -0.382684 0.923879 -4.68652e-17
    outer loop
      vertex 34.7594 -6.75935 -16.9999
      vertex 33 -7.4881 -16.9999
      vertex 34.7594 -6.75935 -2
    endloop
  endfacet
  facet normal -0.382684 0.923879 -4.68652e-17
    outer loop
      vertex 34.7594 -6.75935 -2
      vertex 33 -7.4881 -16.9999
      vertex 33 -7.4881 -2
    endloop
  endfacet
  facet normal -0.923879 0.382684 -1.13143e-16
    outer loop
      vertex 35.4881 -5 -16.9999
      vertex 34.7594 -6.75935 -16.9999
      vertex 35.4881 -5 -2
    endloop
  endfacet
  facet normal -0.923879 0.382684 -1.13143e-16
    outer loop
      vertex 35.4881 -5 -2
      vertex 34.7594 -6.75935 -16.9999
      vertex 34.7594 -6.75935 -2
    endloop
  endfacet
  facet normal -0.923879 -0.382684 -1.13143e-16
    outer loop
      vertex 35.4881 -5 -16.9999
      vertex 35.4881 -5 -2
      vertex 34.7594 -3.24065 -16.9999
    endloop
  endfacet
  facet normal -0.923879 -0.382684 -1.13143e-16
    outer loop
      vertex 34.7594 -3.24065 -16.9999
      vertex 35.4881 -5 -2
      vertex 34.7594 -3.24065 -2
    endloop
  endfacet
  facet normal -0.382684 -0.923879 -4.68652e-17
    outer loop
      vertex 33 -2.5119 -16.9999
      vertex 34.7594 -3.24065 -16.9999
      vertex 34.7594 -3.24065 -2
    endloop
  endfacet
  facet normal -0.382684 -0.923879 -4.68652e-17
    outer loop
      vertex 33 -2.5119 -2
      vertex 33 -2.5119 -16.9999
      vertex 34.7594 -3.24065 -2
    endloop
  endfacet
  facet normal 0.382684 -0.923879 4.68652e-17
    outer loop
      vertex 31.2406 -3.24065 -16.9999
      vertex 33 -2.5119 -16.9999
      vertex 33 -2.5119 -2
    endloop
  endfacet
  facet normal 0.382684 -0.923879 4.68652e-17
    outer loop
      vertex 31.2406 -3.24065 -2
      vertex 31.2406 -3.24065 -16.9999
      vertex 33 -2.5119 -2
    endloop
  endfacet
endsolid OpenSCAD_Model
